<?xml version="1.0" encoding="UTF-8"?>
<svg xmlns="http://www.w3.org/2000/svg" xmlns:inkscape="http://www.inkscape.org/namespaces/inkscape" width="150mm" height="150mm" viewBox="0 0 150 150">
<g inkscape:groupmode="layer" inkscape:label="1 - lines" id="lines" fill="none" stroke="#262626" stroke-width="0.35" stroke-linecap="round" stroke-linejoin="round">
<path d="M29.055,32.560 L28.765,32.465 L28.975,32.496 L29.575,32.525 L30.668,32.453 L32.368,32.113 L34.788,31.237 L38.021,29.402 L42.118,25.928 L47.061,19.630"/>
<path d="M46.407,19.742 L43.782,22.980 L40.152,25.782 L39.081,26.281"/>
<path d="M38.389,26.573 L36.999,26.726 L35.529,26.942 L34.156,27.202 L32.885,27.502 L33.152,27.338 L32.532,27.929 L31.937,28.529 L31.369,29.137 L30.829,29.754 L30.316,30.379 L29.832,31.011 L29.376,31.650 L28.950,32.295 L28.552,32.947 L28.184,33.605 L27.512,34.936 L27.461,35.072 L27.393,35.067 L27.157,35.606 L26.890,36.283 L26.653,36.965 L26.446,37.652 L26.270,38.342 L26.123,39.037 L26.007,39.734 L25.922,40.434 L25.867,41.137 L25.854,42.000"/>
<path d="M25.893,43.176 L25.917,43.180 L25.978,43.968 L26.067,44.677 L26.185,45.386 L26.333,46.096 L26.512,46.805 L26.721,47.514 L26.960,48.223 L27.425,49.400 L27.487,49.400 L27.576,49.637 L27.886,50.341 L28.223,51.043 L28.589,51.743 L28.984,52.441 L29.406,53.136 L29.857,53.828 L30.603,54.879 L30.670,54.871 L30.896,55.198 L31.410,55.880 L31.949,56.558 L32.514,57.232 L33.104,57.902 L33.719,58.567 L34.650,59.515 L34.709,59.502 L35.740,60.527 L37.145,61.814 L38.637,63.078 L39.081,63.433 L38.933,63.315 L38.978,63.295 L40.235,64.310 L41.035,64.924 L41.853,65.530 L43.199,66.487 L42.983,66.333 L43.013,66.308 L44.433,67.302 L45.304,67.885 L46.191,68.462 L47.692,69.399"/>
<path d="M48.229,69.170 L49.945,70.307 L50.744,70.813 L52.405,71.827 L55.031,73.342 L57.789,74.839 L60.647,76.309 L63.576,77.748 L66.548,79.156 L70.563,80.999"/>
<path d="M71.134,80.950 L77.947,83.762 L80.258,84.735"/>
<path d="M82.175,86.253 L81.981,86.101 L81.591,85.733 L81.217,85.322 L80.992,85.046 L80.508,84.396 L80.084,83.763 L79.766,83.250 L79.086,82.056 L78.506,80.932 L77.870,79.587 L77.407,78.528 L77.177,77.986 L76.424,76.087 L75.613,73.841 L75.033,72.092 L74.743,71.187 L73.816,68.051 L72.835,64.334 L71.801,59.904 L71.082,56.401 L70.720,54.574 L69.596,48.051 L68.435,39.846 L67.244,29.013 L67.628,28.797 L67.480,27.603"/>
<path d="M67.482,27.603 L68.790,38.209 L70.096,46.338 L71.398,52.932 L72.698,58.475 L73.993,63.251 L75.284,67.441"/>
<path d="M80.349,75.879 L81.078,75.536 L81.927,75.102 L82.886,74.567 L83.578,74.152 L84.307,73.688 L85.066,73.174 L85.849,72.608 L86.648,71.989 L87.859,70.963 L88.665,70.212 L89.064,69.818 L89.849,68.989 L90.233,68.556 L90.979,67.651 L91.338,67.181 L92.026,66.204 L92.352,65.698 L92.964,64.653 L93.515,63.565 L93.766,63.007 L93.999,62.438 L94.213,61.861 L94.407,61.274 L94.581,60.680 L94.734,60.077 L94.865,59.467 L94.973,58.850 L95.058,58.226 L95.120,57.596 L95.156,56.961 L95.168,56.320 L95.154,55.675 L95.114,55.025 L95.047,54.372 L94.954,53.716 L94.833,53.058 L94.685,52.397 L94.509,51.735 L94.305,51.072 L94.073,50.409 L93.812,49.745 L93.523,49.083 L93.205,48.421 L92.860,47.762 L92.485,47.104 L92.082,46.450 L91.652,45.799 L91.193,45.152 L90.706,44.509 L90.192,43.871 L89.650,43.239 L89.082,42.612 L88.487,41.992 L87.866,41.379 L87.220,40.773 L86.548,40.175 L85.852,39.586 L85.132,39.005 L84.389,38.433 L83.622,37.871 L82.834,37.319 L82.024,36.777 L80.344,35.727 L79.475,35.218 L78.281,34.559"/>
<path d="M77.743,33.555 L79.238,34.260 L80.208,34.745 L82.106,35.761 L83.033,36.290 L83.545,36.600 L83.580,36.557 L83.517,36.520 L84.901,37.343 L85.792,37.905 L86.666,38.482 L87.521,39.072 L87.951,39.388 L87.996,39.361"/>
<path d="M87.461,39.301 L87.658,39.121 L87.424,39.258 L87.147,39.383 L86.738,39.521 L86.175,39.639 L85.439,39.694 L84.507,39.619 L83.360,39.326 L81.980,38.691 L80.532,37.667"/>
<path d="M80.569,37.916 L81.125,38.686 L83.449,41.100 L85.515,42.705 L87.321,43.735 L88.873,44.355 L90.182,44.689 L91.266,44.829 L92.144,44.845 L92.835,44.786 L93.361,44.693 L93.741,44.593 L94.196,44.418 L93.930,44.600"/>
<path d="M97.472,47.907 L97.442,47.924 L97.230,47.653 L96.607,46.926 L95.959,46.210 L95.287,45.507 L94.884,45.099 L94.850,45.117 L94.573,44.823 L93.874,44.134 L93.151,43.458 L91.991,42.441 L91.954,42.468 L91.610,42.158 L90.839,41.511 L90.047,40.877 L88.838,39.958"/>
<path d="M79.868,37.109 L80.258,37.388 L80.102,37.300 L79.746,36.748 L79.374,36.226 L78.585,35.176 L77.586,33.259 L76.156,30.603 L73.137,22.635"/>
<path d="M73.320,23.398 L72.760,21.906 L72.821,22.000 L72.598,21.673 L72.186,21.181 L71.675,20.691 L71.067,20.208 L70.606,19.891 L69.835,19.428 L69.268,19.130 L68.340,18.701 L67.671,18.430 L66.598,18.047 L65.839,17.811 L65.046,17.590 L64.222,17.387 L62.935,17.117 L62.047,16.962 L61.137,16.828 L60.210,16.716 L58.794,16.591 L57.838,16.536 L56.877,16.506 L55.914,16.500 L54.477,16.538 L53.529,16.595 L52.594,16.677 L51.676,16.784 L50.780,16.916 L49.909,17.072 L49.068,17.253 L48.261,17.457"/>
<path d="M48.397,17.375 L48.175,17.645 L47.781,18.188 L47.609,18.461 L47.314,19.007 L47.192,19.281 L46.996,19.828 L46.922,20.100 L46.823,20.642 L46.797,20.912 L46.792,21.446 L46.813,21.710 L46.898,22.232 L46.963,22.490 L47.134,22.997 L47.360,23.492 L47.639,23.973 L47.796,24.209 L48.148,24.668 L48.545,25.111 L48.985,25.538 L49.716,26.142 L50.248,26.522 L50.810,26.881 L51.705,27.382 L52.330,27.689 L52.974,27.975 L53.635,28.240 L54.307,28.482 L54.988,28.704 L55.675,28.903 L56.364,29.082 L57.052,29.239 L58.414,29.493 L59.737,29.669 L60.378,29.730 L61.306,29.788 L61.900,29.807 L62.748,29.807 L63.283,29.789 L64.037,29.740 L65.151,29.604 L65.731,29.496 L66.243,29.372 L66.821,29.191 L67.065,29.094 L67.377,28.947 L67.550,28.847 L67.759,28.698 L67.868,28.600 L67.986,28.458 L68.057,28.323 L68.086,28.196 L68.079,28.081 L68.025,27.946 L67.934,27.834 L67.794,27.727 L67.628,27.646 L67.480,27.603 L67.933,27.609 L68.550,27.545 L69.167,27.424 L69.759,27.261 L70.395,27.030 L70.918,26.792 L71.433,26.503 L71.804,26.252 L72.153,25.972 L72.369,25.770 L72.570,25.554 L72.752,25.326 L72.986,24.962 L73.112,24.705 L73.212,24.437 L73.283,24.159"/>
<path d="M73.210,24.443 L76.437,33.483 L79.526,39.858 L82.449,44.537 L85.185,48.035 L87.717,50.665 L90.037,52.639 L92.140,54.107 L94.025,55.182 L95.697,55.952 L97.165,56.486 L98.439,56.839 L99.530,57.056 L100.453,57.174 L101.220,57.221 L101.846,57.220 L102.346,57.190 L103.016,57.097 L103.379,57.005 L103.017,57.184"/>
<path d="M103.597,58.457 L104.212,59.585 L104.613,60.395 L104.990,61.216 L105.343,62.049 L105.671,62.892 L105.973,63.745 L106.251,64.609 L106.504,65.481 L106.731,66.363 L106.932,67.253 L107.109,68.151 L107.260,69.056 L107.386,69.968 L107.487,70.886 L107.579,72.101"/>
<path d="M107.751,72.574 L107.751,72.160 L107.666,72.825 L107.558,73.402 L107.386,74.150 L107.135,75.057 L106.794,76.109 L106.587,76.685 L106.092,77.923 L105.484,79.261 L104.761,80.680 L103.918,82.160 L103.452,82.916 L102.957,83.681 L102.432,84.451 L101.879,85.226 L101.297,86.002 L100.687,86.778 L100.050,87.552 L99.387,88.322 L98.698,89.087 L97.984,89.845 L97.247,90.594 L96.487,91.335 L95.599,92.157"/>
<path d="M96.461,93.011 L90.085,92.869 L86.880,92.761 L84.780,92.672 L81.694,92.508 L79.684,92.377 L77.713,92.227 L75.785,92.058 L72.976,91.767 L71.163,91.548 L69.399,91.308 L67.686,91.048 L66.026,90.768 L64.419,90.469 L62.869,90.150 L61.376,89.812 L59.942,89.456 L58.567,89.083 L57.254,88.694 L55.401,88.080 L54.244,87.653 L52.892,87.102 L51.637,86.530 L50.710,86.062 L49.849,85.584 L49.249,85.220 L48.682,84.852 L47.988,84.356 L47.666,84.105 L47.073,83.602 L46.546,83.095 L46.308,82.841 L45.881,82.331 L45.519,81.821 L45.363,81.566 L45.098,81.058"/>
<path d="M44.409,84.074 L44.372,84.493 L44.374,84.726 L44.422,85.196 L44.469,85.432 L44.611,85.908 L44.706,86.147 L44.943,86.625 L45.087,86.865 L45.423,87.343 L45.615,87.582 L46.051,88.057 L46.294,88.294 L46.830,88.763 L47.124,88.995 L47.762,89.455 L48.107,89.681 L48.847,90.128 L49.242,90.348 L50.084,90.779 L50.530,90.990 L51.968,91.603 L53.011,91.993 L54.697,92.546 L56.529,93.057 L58.503,93.522 L59.895,93.804 L62.095,94.182 L63.635,94.401 L66.049,94.681 L67.726,94.831 L70.337,95.001 L72.140,95.076 L73.990,95.120 L75.885,95.131 L78.805,95.085 L80.802,95.012 L82.834,94.906 L84.899,94.765 L86.994,94.591 L90.184,94.268 L92.336,94.012 L94.708,93.693"/>
<path d="M95.251,94.124 L95.954,94.779 L96.373,95.205 L96.763,95.630 L97.124,96.053 L97.456,96.474 L97.759,96.893 L98.034,97.308 L98.282,97.719 L98.502,98.125 L98.697,98.526 L98.866,98.920 L99.133,99.687 L99.233,100.057 L99.373,100.765 L99.445,101.422 L99.459,101.729 L99.451,102.294 L99.382,102.996 L99.319,103.353 L99.211,103.787 L99.348,103.420"/>
<path d="M107.749,107.190 L107.751,107.605 L107.701,107.178 L107.620,106.729 L107.386,105.808 L107.135,105.053 L106.977,104.640 L106.587,103.756 L106.092,102.807 L105.484,101.811 L105.137,101.299 L104.761,100.782 L104.354,100.259 L103.918,99.734 L103.452,99.206 L102.957,98.677 L102.432,98.149 L101.879,97.622 L101.297,97.097 L100.687,96.575 L99.387,95.543 L97.984,94.528 L96.609,93.614"/>
<path d="M96.716,93.576 L94.631,94.272 L92.536,94.920 L90.439,95.517 L88.347,96.063 L86.265,96.556 L84.199,96.998 L82.152,97.388 L81.138,97.563 L79.130,97.877 L77.153,98.141 L76.177,98.255 L74.253,98.447 L72.367,98.593 L71.440,98.649 L69.619,98.729 L67.844,98.765 L66.975,98.768 L65.275,98.745 L63.627,98.683 L61.259,98.522 L59.752,98.372 L57.604,98.088 L55.596,97.737 L53.733,97.326 L52.019,96.861 L51.482,96.695 L50.458,96.348 L49.972,96.167 L49.052,95.792 L48.618,95.599 L47.804,95.201 L47.423,94.996 L46.714,94.578 L46.386,94.365 L45.783,93.931 L45.508,93.711 L45.010,93.265 L44.583,92.813 L44.225,92.357 L44.071,92.127 L43.816,91.667 L43.628,91.207 L43.507,90.747 L43.470,90.518 L43.446,90.063 L43.485,89.612 L43.553,89.291"/>
<path d="M42.004,94.626 L41.891,94.942 L41.793,95.386 L41.763,95.835 L41.773,96.060 L41.847,96.511 L41.991,96.963 L42.208,97.413 L42.344,97.637 L42.670,98.081 L43.071,98.519 L43.547,98.948 L43.813,99.160 L44.402,99.574 L44.725,99.776 L45.428,100.170 L45.807,100.361 L46.623,100.730 L47.059,100.907 L47.986,101.246 L48.478,101.408 L49.516,101.713 L50.062,101.856 L51.209,102.121 L51.808,102.243 L53.060,102.465 L53.711,102.563 L55.065,102.735 L55.766,102.808 L57.216,102.926 L57.965,102.970 L59.508,103.028 L61.109,103.044 L61.931,103.035 L63.614,102.983 L65.349,102.882 L66.234,102.813 L68.039,102.636 L69.887,102.405 L70.826,102.268 L72.730,101.953 L74.666,101.578 L76.630,101.143 L78.616,100.645 L80.621,100.083 L82.637,99.455 L84.659,98.761 L86.682,98.001 L88.697,97.172 L90.699,96.278 L92.250,95.524"/>
<path d="M92.671,95.327 L93.374,95.997 L94.423,96.926 L95.444,97.766 L96.438,98.523 L97.405,99.203 L98.344,99.810 L99.256,100.350 L100.140,100.826 L100.996,101.242 L101.825,101.603 L102.626,101.911 L103.400,102.171 L104.147,102.384 L104.868,102.554 L105.562,102.683 L106.230,102.774 L106.873,102.829 L107.490,102.850 L108.082,102.840 L108.650,102.801 L109.194,102.733 L109.714,102.639 L110.211,102.521 L110.686,102.380 L111.138,102.218 L111.569,102.035 L111.978,101.833 L112.366,101.613 L112.734,101.377 L113.082,101.125 L113.411,100.858 L113.720,100.578 L114.011,100.284 L114.283,99.979 L114.537,99.661 L114.774,99.333 L114.993,98.995 L115.380,98.291 L115.549,97.925 L115.839,97.171 L115.960,96.783 L116.156,95.985 L116.231,95.577 L116.336,94.744 L116.365,94.319 L116.380,93.454 L116.336,92.570 L116.291,92.122 L116.156,91.214 L116.066,90.755 L115.839,89.826 L115.549,88.887 L115.380,88.413 L114.993,87.461 L114.774,86.983 L114.283,86.024 L114.011,85.545 L113.411,84.588 L112.734,83.637 L111.978,82.698 L111.138,81.776 L110.686,81.325 L110.211,80.880 L109.714,80.445 L109.194,80.019 L108.650,79.604 L108.082,79.201 L107.490,78.813 L106.873,78.440 L106.230,78.084 L105.562,77.749 L104.868,77.434 L104.147,77.144 L103.400,76.879 L102.626,76.644 L101.825,76.441 L100.996,76.272 L100.140,76.142 L99.256,76.053 L98.344,76.010 L97.405,76.017 L96.438,76.079 L95.444,76.201 L94.423,76.388 L93.374,76.647 L92.299,76.985 L91.197,77.408 L90.070,77.926 L88.917,78.549 L87.740,79.287 L86.538,80.152 L85.314,81.161 L84.068,82.330 L83.940,82.466"/>
<path d="M82.986,80.887 L83.277,80.537 L84.524,79.204 L85.759,78.031 L86.981,77.001 L88.188,76.100 L89.381,75.317 L90.558,74.641 L91.719,74.064 L92.863,73.577 L93.990,73.175 L95.100,72.850 L96.191,72.598 L97.263,72.413 L98.317,72.292 L99.351,72.229 L100.364,72.221 L101.358,72.265 L102.330,72.357 L103.282,72.494 L104.212,72.674 L105.120,72.894 L106.007,73.152 L106.871,73.445 L107.712,73.771 L108.531,74.128 L109.327,74.514 L110.100,74.928 L110.850,75.367 L111.576,75.829 L112.278,76.314 L112.957,76.820 L113.612,77.345 L114.244,77.888 L114.851,78.447 L115.434,79.021 L115.993,79.610 L116.528,80.211 L117.039,80.824 L117.525,81.447 L117.987,82.079 L118.425,82.720 L118.839,83.369 L119.228,84.024 L119.593,84.684 L119.933,85.348 L120.249,86.017 L120.541,86.687 L120.809,87.360 L121.052,88.034 L121.271,88.708 L121.465,89.381 L121.635,90.053 L121.781,90.722 L121.902,91.388 L122.000,92.051 L122.073,92.709 L122.121,93.362 L122.145,94.008 L122.145,94.648 L122.121,95.280 L122.073,95.903 L122.000,96.517 L121.902,97.122 L121.781,97.716 L121.635,98.298 L121.465,98.868 L121.271,99.425 L121.052,99.968 L120.809,100.496 L120.541,101.009 L120.249,101.505 L119.933,101.984 L119.593,102.445 L119.228,102.887 L118.839,103.309 L118.425,103.710 L117.987,104.089 L117.525,104.445 L117.039,104.777 L116.528,105.084 L115.993,105.366 L115.434,105.619 L114.851,105.845 L114.244,106.041 L113.612,106.206 L112.957,106.339 L112.278,106.439 L111.576,106.503 L110.850,106.532 L110.100,106.522 L109.327,106.473 L108.531,106.383 L107.712,106.250 L106.871,106.073 L106.007,105.849 L105.120,105.576 L104.212,105.253 L103.282,104.877 L102.330,104.445 L101.358,103.955 L100.364,103.405 L99.351,102.791 L98.317,102.109 L97.263,101.357 L96.191,100.531 L95.100,99.626 L93.990,98.638 L92.863,97.561 L91.719,96.390 L91.370,96.007"/>
<path d="M94.039,94.653 L94.825,95.249 L95.644,95.818 L96.425,96.315 L97.171,96.745 L97.882,97.116 L98.558,97.430 L99.201,97.695 L99.812,97.913 L100.391,98.089 L100.939,98.226 L101.458,98.329 L101.948,98.400 L102.411,98.442 L102.848,98.459 L103.259,98.452 L103.647,98.423 L104.011,98.376 L104.674,98.232 L105.257,98.034 L105.766,97.792 L105.996,97.657 L106.410,97.367 L106.595,97.213 L106.927,96.891 L107.074,96.723 L107.336,96.379 L107.653,95.843 L107.892,95.292 L108.062,94.727 L108.141,94.343 L108.195,93.954 L108.230,93.357 L108.224,92.949 L108.195,92.531 L108.141,92.102 L108.062,91.660 L107.892,90.970 L107.653,90.242 L107.336,89.473 L106.927,88.660 L106.410,87.802 L105.996,87.207 L105.766,86.903 L105.257,86.285 L104.674,85.657 L104.353,85.341 L103.647,84.709 L103.259,84.395 L102.411,83.779 L101.948,83.480 L101.458,83.189 L100.939,82.909 L100.391,82.642 L99.812,82.391 L99.201,82.159 L98.558,81.949 L97.882,81.765 L97.171,81.611 L96.425,81.492 L95.644,81.412 L94.825,81.378 L93.970,81.395 L93.077,81.470 L92.146,81.612 L91.177,81.828 L90.170,82.128 L89.124,82.524 L88.041,83.027 L86.921,83.651 L85.764,84.413 L85.387,84.706"/>
<path d="M82.721,86.534 L82.803,86.542 L82.640,86.639 L82.488,86.797 L82.316,87.045 L82.139,87.384 L81.914,87.970 L81.715,88.697 L81.553,89.545 L81.436,90.496 L81.367,91.529 L81.348,92.347 L81.357,93.191 L81.414,94.344 L81.520,95.506 L81.671,96.651 L81.914,98.013 L82.198,99.230 L82.488,100.210 L82.640,100.641 L82.803,101.030 L82.625,100.749"/>
<path d="M82.786,101.042 L82.321,101.696 L79.806,105.963 L77.193,111.379 L74.493,118.442 L71.724,128.103"/>
<path d="M70.661,128.384 L73.075,118.746 L75.445,111.669 L77.760,106.204 L79.429,102.986"/>
<path d="M79.643,102.780 L78.342,103.566 L77.385,104.114 L76.420,104.642 L75.448,105.152 L73.484,106.116 L72.254,106.675 L71.920,106.915 L71.924,106.889 L70.539,107.565 L69.018,108.252"/>
<path d="M68.519,108.195 L66.533,108.894 L65.544,109.216 L63.579,109.804 L62.604,110.071 L61.358,110.387 L60.862,110.364 L59.239,111.014 L57.440,111.676 L55.629,112.283 L53.817,112.835 L52.913,113.090 L51.115,113.557 L49.336,113.967 L47.594,114.328 L45.896,114.636 L44.246,114.889 L42.650,115.086 L41.875,115.165 L40.376,115.284 L38.294,115.385 L37.032,115.403 L36.437,115.395 L35.325,115.346 L33.700,115.212"/>
<path d="M33.726,115.649 L35.226,116.499 L36.334,117.389 L38.233,118.863 L40.630,121.445 L42.183,123.090 L47.241,130.669 L47.493,130.959 L47.797,131.238 L48.148,131.504 L48.545,131.757 L48.985,131.995 L49.716,132.322 L50.525,132.613 L51.400,132.864 L52.015,133.009 L52.975,133.191 L53.969,133.331 L54.988,133.429 L56.019,133.485 L57.052,133.500 L58.076,133.475 L59.082,133.413 L60.060,133.315 L61.002,133.184 L61.900,133.023 L62.748,132.835 L63.792,132.547 L64.727,132.226 L65.545,131.879 L66.243,131.516 L66.821,131.146 L67.065,130.960 L67.377,130.684 L67.550,130.503 L67.759,130.238 L67.868,130.068 L67.986,129.822 L68.071,129.518 L68.086,129.275 L68.071,129.518 L69.563,120.288 L71.006,113.716 L72.379,108.854 L73.299,106.249"/>
<path d="M73.842,105.979 L72.137,111.621 L70.418,118.816 L68.686,128.516"/>
<path d="M68.238,128.481 L68.949,128.525 L69.759,128.500 L70.526,128.408 L70.918,128.332 L71.306,128.236 L71.923,128.028 L72.263,127.873 L72.472,127.759 L72.752,127.569 L72.914,127.432 L73.052,127.286 L73.166,127.133 L73.283,126.889 L73.324,126.719 L73.285,126.883 L76.511,117.066 L79.568,110.013 L82.449,104.698 L85.140,100.595 L86.544,98.797"/>
<path d="M85.254,99.531 L84.041,100.196 L82.086,101.185 L80.113,102.099 L78.128,102.938 L76.140,103.702 L74.155,104.392 L72.181,105.010 L70.224,105.557 L68.291,106.035 L66.386,106.446 L64.517,106.792 L62.687,107.075 L60.902,107.299 L59.167,107.464 L57.485,107.574 L56.666,107.609 L55.072,107.642 L53.542,107.625 L52.801,107.600 L51.372,107.516 L50.683,107.458 L49.360,107.312 L48.726,107.224 L47.515,107.023 L46.382,106.787 L45.845,106.657 L44.830,106.375 L44.353,106.224 L43.460,105.903 L43.045,105.733 L42.276,105.377 L41.923,105.192 L41.279,104.807 L40.989,104.609 L40.471,104.201 L40.243,103.992 L39.849,103.567 L39.684,103.350 L39.414,102.912 L39.310,102.691 L39.161,102.245 L39.117,102.021 L39.088,101.572 L39.102,101.347 L39.189,100.900 L39.350,100.456 L39.550,100.076"/>
<path d="M41.452,97.302 L40.902,98.667 L40.296,100.041 L39.628,101.421 L38.818,102.940 L38.094,104.181 L37.220,105.548 L36.271,106.894 L35.768,107.556 L35.247,108.206 L34.708,108.843 L34.152,109.465 L33.580,110.067 L32.995,110.647 L32.280,111.305 L31.795,111.725 L31.190,112.212 L30.474,112.739 L30.000,113.062 L29.435,113.412 L28.907,113.707 L28.434,113.940 L28.037,114.111 L27.582,114.264 L27.720,114.246"/>
<path d="M27.366,114.145 L27.853,114.385 L28.600,114.668 L29.466,114.919 L29.942,115.032 L30.828,115.202 L30.689,115.233 L30.523,115.198 L31.378,115.356 L32.529,115.508 L33.783,115.618 L34.961,115.673 L34.840,115.714"/>
<path d="M36.152,115.767 L36.300,115.808 L38.427,116.743 L41.018,118.404 L44.084,121.171 L45.851,123.437 L47.611,125.648 L49.585,129.318 L51.554,132.902"/>
<path d="M49.268,132.130 L44.681,124.770 L40.648,120.248 L37.556,117.748"/>
<path d="M36.421,115.701 L36.267,115.771 L36.679,115.470 L36.996,115.193 L37.562,114.634 L37.910,114.254 L38.641,113.371 L39.390,112.353 L40.130,111.233 L40.845,110.038 L41.525,108.788 L42.223,107.379 L42.816,106.067 L43.365,104.743 L43.871,103.413 L44.513,101.544 L44.957,100.099 L45.463,98.256 L45.808,96.838 L46.192,95.036 L46.448,93.653 L46.725,91.896 L46.901,90.549 L47.080,88.837 L47.213,87.038 L47.273,85.743 L47.307,84.097 L47.289,82.365 L47.213,80.655 L47.090,79.072 L46.959,77.854 L46.725,76.204 L46.448,74.680 L46.192,73.509 L45.808,72.029 L45.463,70.898"/>
<path d="M44.560,71.934 L44.788,72.283 L45.250,72.909 L45.783,73.537 L46.386,74.166 L47.059,74.795 L47.758,75.386 L48.202,75.737 L49.052,76.362 L49.972,76.984 L50.900,77.565 L51.482,77.909 L52.574,78.520 L54.337,79.424 L55.596,80.018 L56.838,80.571 L59.021,81.472 L60.408,82.007 L61.940,82.567 L64.345,83.394 L66.016,83.937 L67.739,84.473 L70.414,85.266 L74.138,86.310 L78.018,87.349 L87.304,89.792 L90.439,90.653 L92.536,91.252 L95.675,92.197 L97.753,92.864 L99.810,93.563 L100.827,93.925 L102.833,94.676 L104.792,95.463 L105.750,95.870 L107.615,96.710 L108.518,97.142 L110.258,98.026 L111.090,98.476 L112.670,99.386 L113.414,99.844 L114.801,100.752 L115.439,101.198 L116.599,102.064 L117.592,102.872 L118.409,103.598 L119.298,104.476 L119.667,104.882 L119.903,105.167 L119.669,104.820"/>
<path d="M122.769,100.350 L123.080,100.603 L122.285,100.102 L121.145,99.484 L120.118,98.982 L119.528,98.713 L118.207,98.150 L116.714,97.569 L115.909,97.276 L114.198,96.695 L113.297,96.409 L112.368,96.127 L110.441,95.580 L109.446,95.316 L107.407,94.807 L104.254,94.096 L100.808,93.403"/>
<path d="M101.232,92.664 L104.254,92.121 L108.434,91.303 L112.368,90.482 L120.218,88.785 L122.021,88.421 L123.080,88.234 L122.760,88.269"/>
<path d="M123.812,94.619 L124.150,94.735 L123.431,94.562 L122.289,94.347 L121.241,94.184 L119.981,94.018 L117.737,93.780 L115.139,93.574 L112.269,93.408 L109.202,93.281 L106.002,93.187 L101.806,93.102"/>
<path d="M99.234,92.662 L100.827,92.048 L101.835,91.642 L102.833,91.226 L104.792,90.373 L105.750,89.937 L107.615,89.052 L108.518,88.605 L110.258,87.712 L112.670,86.396 L114.125,85.556 L115.439,84.764 L116.599,84.038 L117.592,83.393 L118.751,82.610 L119.898,81.792 L119.655,81.975"/>
<path d="M114.592,76.460 L114.731,76.147 L114.386,76.772 L114.056,77.313 L113.600,78.010 L113.011,78.850 L112.286,79.814 L111.423,80.885 L110.425,82.040 L109.295,83.259 L108.041,84.522 L107.369,85.163 L105.944,86.456 L105.192,87.103 L103.616,88.389 L102.794,89.024 L101.091,90.273 L100.212,90.884 L98.405,92.072 L97.367,92.714"/>
<path d="M97.726,93.288 L99.316,94.082 L101.091,95.035 L102.794,96.021 L103.616,96.526 L105.192,97.559 L105.944,98.085 L106.670,98.616 L108.041,99.690 L108.683,100.230 L109.876,101.308 L110.941,102.370 L111.872,103.400 L112.666,104.374 L113.323,105.272 L113.844,106.067 L114.236,106.735 L114.507,107.252 L114.731,107.748 L114.602,107.347"/>
<path d="M99.157,93.060 L99.098,92.827 L98.971,92.509 L98.830,92.224 L98.617,91.856 L98.180,91.228 L97.876,90.855 L97.502,90.447 L97.048,90.007 L96.786,89.778 L96.187,89.308 L95.475,88.834 L95.072,88.602 L94.635,88.377 L94.164,88.163 L93.655,87.964 L93.107,87.784 L92.519,87.629 L91.889,87.505 L91.214,87.419 L90.495,87.379 L89.730,87.395 L88.916,87.476 L88.055,87.635 L87.580,87.768"/>
<path d="M87.172,88.556 L86.423,87.846 L85.850,87.235 L85.226,86.510 L84.548,85.655 L83.816,84.650 L83.054,83.517 L82.210,82.156 L81.275,80.520 L80.312,78.680 L79.291,76.551 L78.213,74.088 L77.079,71.236 L75.934,68.044 L74.655,64.064 L73.372,59.523 L72.045,54.119 L71.439,51.204"/>
<path d="M79.113,36.720 L79.562,37.580 L82.405,41.708 L85.022,44.664 L87.398,46.773 L89.528,48.258 L91.410,49.277 L93.051,49.950 L94.462,50.369 L95.656,50.603 L96.649,50.708 L97.460,50.727 L98.106,50.693 L98.604,50.632 L98.972,50.562 L99.448,50.424 L99.129,50.603"/>
<path d="M97.986,48.536 L98.450,49.122 L99.012,49.877 L99.547,50.643 L100.055,51.419 L100.535,52.204 L100.988,52.999 L101.413,53.802 L101.809,54.614 L102.176,55.433 L102.514,56.259 L102.823,57.092 L103.103,57.931 L103.354,58.775 L103.574,59.624 L103.766,60.477 L103.927,61.334 L104.060,62.193 L104.163,63.055 L104.237,63.918 L104.283,64.782 L104.300,65.646 L104.289,66.510 L104.251,67.372 L104.185,68.233 L104.093,69.090 L103.975,69.944 L103.832,70.794 L103.761,71.129"/>
<path d="M102.079,70.934 L101.580,70.789 L100.481,70.395 L99.260,69.880 L97.913,69.219 L96.434,68.382 L94.821,67.336 L93.072,66.039 L91.186,64.442 L89.163,62.484 L87.008,60.089 L85.512,58.152 L84.725,57.157 L83.151,54.780 L82.321,53.555 L80.676,50.611 L79.806,49.089 L78.097,45.385 L77.193,43.466 L75.428,38.677 L74.493,36.189 L72.684,29.692 L71.724,26.309 L71.485,26.467 L71.341,26.099 L69.831,20.519 L69.503,19.251"/>
<path d="M71.507,20.549 L73.005,24.929"/>
<path d="M72.631,25.481 L75.691,34.980 L77.620,39.433 L78.648,41.844 L80.496,45.204 L81.481,47.029 L83.235,49.624 L84.172,51.039 L86.707,54.178 L89.073,56.644 L91.266,58.582 L93.280,60.095 L95.116,61.268 L96.777,62.166 L98.266,62.841 L99.591,63.337 L100.759,63.691 L101.780,63.933 L102.664,64.089 L103.420,64.178 L104.059,64.218 L104.591,64.224 L105.026,64.206 L105.641,64.139 L106.084,64.042 L105.715,64.223"/>
<path d="M99.366,71.370 L99.211,70.922 L99.319,71.488 L99.382,71.982 L99.434,72.629 L99.460,73.421 L99.445,74.353 L99.417,74.868 L99.313,75.989 L99.133,77.222 L98.866,78.553 L98.502,79.968 L98.282,80.703 L98.034,81.453 L97.759,82.217 L97.456,82.993 L97.124,83.779 L96.763,84.573 L96.373,85.374 L95.954,86.180 L95.506,86.988 L95.028,87.799 L94.521,88.609 L93.986,89.418 L93.423,90.224 L92.800,91.065"/>
<path d="M94.063,92.217 L80.993,90.128 L77.032,89.448 L73.236,88.738 L71.405,88.369 L69.622,87.989 L67.888,87.597 L66.206,87.193 L64.578,86.777 L63.005,86.348 L61.489,85.907 L60.031,85.453 L58.633,84.988 L57.296,84.510 L55.903,83.975 L54.697,83.475 L53.557,82.965 L52.481,82.446 L51.472,81.919 L50.168,81.166 L49.242,80.571 L48.468,80.022 L47.762,79.469 L47.124,78.913 L46.554,78.356 L46.051,77.798 L45.825,77.519 L45.459,77.015 L45.087,76.407"/>
<path d="M45.251,77.391 L45.370,79.014 L45.420,80.201 L45.442,81.995 L45.420,83.200 L45.370,84.414 L45.264,85.947 L45.114,87.489 L44.958,88.737 L44.771,89.996 L44.488,91.591 L44.154,93.197 L43.844,94.500 L43.495,95.815 L43.105,97.143 L42.671,98.482 L42.191,99.832 L41.662,101.191 L41.081,102.556 L40.445,103.923 L39.929,104.949 L39.385,105.963 L38.604,107.306 L37.977,108.298 L37.323,109.264 L36.634,110.204 L35.923,111.104 L35.190,111.955 L34.447,112.746 L33.709,113.456 L32.989,114.080 L32.538,114.434 L31.936,114.852 L31.440,115.150 L31.100,115.315 L31.256,115.273"/>
<path d="M36.329,115.065 L35.375,114.937 L34.829,114.843 L34.309,114.740 L33.348,114.504 L32.493,114.234 L32.106,114.088 L31.415,113.772 L31.111,113.605 L30.835,113.431 L30.588,113.252 L30.368,113.067 L30.177,112.877 L30.013,112.684 L29.878,112.486 L29.772,112.284 L29.693,112.079 L29.643,111.872 L29.620,111.662 L29.626,111.450 L29.659,111.236 L29.719,111.022 L29.807,110.806 L29.922,110.590 L30.064,110.374 L30.232,110.158 L30.427,109.943 L30.893,109.517 L31.165,109.306 L31.781,108.891 L32.128,108.686 L31.807,108.867 L32.214,108.637 L32.585,108.394 L33.012,108.086 L33.473,107.724 L33.954,107.317 L34.445,106.870 L34.934,106.392 L35.420,105.886 L35.898,105.357 L36.364,104.808 L37.258,103.665 L38.094,102.477 L38.867,101.258 L39.579,100.020 L40.233,98.771 L40.827,97.517 L41.370,96.263 L41.859,95.011 L42.303,93.765 L42.882,91.908 L43.218,90.680 L43.646,88.855 L43.994,87.051 L44.266,85.267 L44.464,83.503 L44.596,81.759 L44.660,80.034 L44.660,78.329 L44.597,76.645 L44.469,74.982 L44.280,73.346 L44.027,71.741 L43.711,70.176 L43.334,68.665 L42.901,67.227 L42.452,65.971"/>
<path d="M42.954,66.161 L42.786,66.204 L42.993,66.075 L43.238,65.885 L43.600,65.557 L44.098,65.035 L44.751,64.251 L45.576,63.116 L46.593,61.517 L47.814,59.312 L49.252,56.318 L50.908,52.287 L51.125,51.628 L52.779,46.871 L53.018,45.979 L54.849,39.522 L55.108,38.278 L57.094,29.248"/>
<path d="M59.875,29.683 L59.081,35.727 L58.533,40.258 L57.791,44.658 L57.278,47.964 L56.597,51.279 L56.125,53.775 L55.510,56.308 L55.082,58.221 L54.536,60.161 L54.156,61.632 L53.680,63.113 L53.347,64.240 L52.938,65.361 L52.651,66.217 L52.307,67.053 L52.064,67.696 L51.578,68.783 L51.185,69.565 L50.876,70.111 L50.640,70.478 L50.470,70.710 L50.267,70.932 L50.365,70.888"/>
<path d="M51.202,72.052 L52.266,72.701 L53.542,73.447 L55.862,74.725 L58.319,75.991 L60.902,77.246 L63.834,78.596 L66.631,79.829 L70.476,81.464 L75.586,83.581"/>
<path d="M77.347,84.057 L76.069,83.481 L79.236,84.921 L81.055,85.766 L83.647,87.010 L86.023,88.214 L87.438,88.972 L88.434,89.538"/>
<path d="M88.552,89.033 L88.857,88.340 L89.143,87.635 L89.401,86.939 L89.633,86.250 L89.838,85.572 L90.018,84.904 L90.174,84.248 L90.305,83.606 L90.413,82.977 L90.564,81.767 L90.609,81.187 L90.644,80.083 L90.615,79.059 L90.532,78.122 L90.474,77.688 L90.333,76.891 L90.083,75.884 L89.910,75.342 L89.745,74.905 L89.601,74.574 L89.409,74.199 L89.730,74.638"/>
<path d="M88.176,75.025 L86.691,73.157 L84.990,70.785 L83.231,68.054 L81.415,64.896 L79.548,61.223 L77.633,56.910 L75.675,51.774 L73.681,45.528 L71.654,37.688 L69.603,27.308"/>
<path d="M70.661,26.915 L73.075,37.088 L75.445,44.691 L77.760,50.670 L80.013,55.515 L82.193,59.514 L84.294,62.854 L86.310,65.665 L88.236,68.038 L90.067,70.047 L91.802,71.745 L92.658,72.494"/>
<path d="M85.016,77.687 L83.529,75.347 L81.990,72.683 L80.417,69.673 L78.813,66.252 L77.180,62.333 L75.521,57.794 L73.839,52.453 L72.137,46.027 L70.418,38.031 L68.686,27.523 L68.414,27.564 L68.105,26.278 L67.719,24.473 L67.216,21.239 L66.784,18.110"/>
<path d="M63.456,17.220 L63.332,21.991 L63.328,23.185 L63.219,25.818 L63.215,26.480 L63.123,27.862 L63.120,28.213 L63.043,28.842 L63.041,29.004 L62.980,29.193 L62.978,29.244 L62.931,29.193"/>
<path d="M62.397,29.810 L62.245,32.659 L61.896,40.573 L61.753,42.676 L61.422,48.528 L61.289,50.142 L60.980,54.640 L60.857,55.900 L60.573,59.421 L60.462,60.411 L60.203,63.187 L60.104,63.966 L59.872,66.157 L59.784,66.767 L59.579,68.489 L59.324,70.306 L59.105,71.708 L58.919,72.775 L58.639,74.158 L58.461,74.861 L58.331,75.241 L58.363,75.208"/>
<path d="M58.648,75.400 L58.780,75.713 L58.875,76.026 L58.968,76.407 L59.100,77.098 L59.297,78.521 L59.398,79.512 L59.486,80.589 L59.605,82.544 L59.702,85.106 L59.750,87.731 L59.754,90.634 L59.714,93.532 L59.625,96.671 L59.486,99.884 L59.332,102.575 L59.100,105.730 L58.875,108.173 L58.638,110.261 L58.465,111.501 L58.331,112.259 L58.376,112.092"/>
<path d="M58.332,112.259 L58.255,112.254 L56.620,112.759 L55.636,113.038 L55.030,113.199 L55.301,113.128 L55.332,113.087 L53.693,113.534 L52.724,113.775 L51.155,114.130 L51.462,114.066 L51.495,114.026 L49.877,114.387 L48.936,114.576 L47.412,114.847"/>
<path d="M46.253,115.038 L46.593,115.122 L47.814,115.710 L49.252,116.803 L50.908,118.643 L52.779,121.584 L53.018,122.142 L54.849,126.194 L55.108,127.077 L57.094,133.499"/>
<path d="M59.875,133.336 L59.081,129.068 L58.533,125.866 L57.791,123.126 L57.278,121.064 L56.597,119.273 L56.125,117.921 L55.510,116.764 L55.082,115.887 L54.536,115.168 L54.156,114.619 L53.680,114.204 L53.347,113.884 L53.011,113.716"/>
<path d="M50.369,114.188 L50.267,114.324 L50.432,114.007 L50.631,113.558 L50.873,112.940 L51.141,112.181 L51.560,110.838 L51.838,109.838 L52.109,108.778 L52.493,107.107 L52.732,105.956 L53.060,104.198 L53.260,103.015 L53.528,101.237 L53.761,99.464 L53.960,97.706 L54.125,95.970 L54.258,94.259 L54.360,92.575 L54.432,90.921 L54.479,89.069 L54.488,87.483 L54.469,85.930 L54.421,84.413 L54.343,82.933 L54.235,81.494 L54.125,80.364 L53.960,79.010 L53.761,77.712 L53.563,76.648 L53.353,75.699 L53.060,74.601 L52.779,73.736 L52.493,73.006 L52.163,72.322 L51.870,71.838"/>
<path d="M46.826,68.871 L47.264,69.617 L47.625,70.328 L47.827,70.769 L48.306,71.965 L48.622,72.890 L49.002,74.201 L49.248,75.198 L49.549,76.651 L49.797,78.147 L49.996,79.680 L50.146,81.246 L50.250,82.845 L50.309,84.473 L50.324,86.130 L50.294,87.817 L50.220,89.533 L50.095,91.350 L49.927,93.126 L49.711,94.932 L49.443,96.767 L49.122,98.628 L48.744,100.511 L48.325,102.334 L47.980,103.681 L47.459,105.506 L47.038,106.837 L46.388,108.681 L45.922,109.868 L45.216,111.485 L44.683,112.570 L44.183,113.486 L43.733,114.227 L43.488,114.594 L43.109,115.107 L42.786,115.473 L42.919,115.376"/>
<path d="M40.376,115.672 L41.686,116.104 L43.537,117.091 L45.727,118.808 L48.256,121.626 L50.561,125.290 L51.107,126.129 L53.643,132.012 L54.244,133.361"/>
<path d="M62.397,132.917 L62.245,130.880 L61.896,125.203 L61.753,123.867 L61.422,120.133 L61.289,119.234 L60.980,116.715 L60.857,116.112 L60.573,114.413 L60.462,114.018 L60.203,112.898 L60.104,112.651 L59.872,111.945 L59.783,111.802"/>
<path d="M59.113,112.016 L60.582,111.525 L62.197,110.939 L62.177,110.980"/>
<path d="M65.648,109.684 L65.511,110.753 L65.334,112.616 L65.144,115.296 L64.940,119.119 L64.725,124.627 L64.513,132.305"/>
<path d="M66.137,131.576 L66.640,126.148 L66.931,123.217 L67.416,119.479 L67.697,117.455 L68.163,114.780 L68.432,113.326 L68.874,111.380 L69.130,110.319 L69.545,108.902 L69.787,108.125 L69.883,107.873"/>
<path d="M70.935,107.389 L70.095,111.140 L68.790,118.497 L67.482,128.328"/>
<path d="M69.603,128.510 L71.654,118.856 L73.681,111.731 L75.675,106.191 L76.343,104.684"/>
<path d="M74.709,105.242 L74.814,105.483 L74.678,105.012 L74.489,104.216 L74.272,103.136 L74.109,102.190 L73.855,100.435 L73.680,98.930 L73.535,97.380 L73.401,95.424 L73.322,93.491 L73.300,91.619 L73.333,89.838 L73.423,88.182 L73.568,86.685 L73.721,85.627 L73.809,85.151 L73.953,84.514 L74.056,84.144 L74.218,83.677 L74.382,83.322 L74.540,83.083 L74.678,82.953 L74.751,82.919 L74.814,82.915 L74.699,82.815 L74.594,82.685 L74.288,82.187 L73.926,81.434 L73.597,80.633 L73.318,79.872 L73.000,78.921 L72.641,77.744 L72.239,76.299 L71.792,74.536 L71.492,73.246 L70.969,70.832 L70.401,67.914 L70.175,66.677 L69.787,64.390 L69.545,62.892 L69.130,60.118 L68.874,58.292 L68.432,54.905 L68.163,52.648 L67.697,48.453 L67.416,45.591 L66.931,40.268 L66.640,36.470 L66.137,29.400"/>
<path d="M64.569,29.685 L62.775,29.174 L60.865,28.686 L59.905,28.462 L57.979,28.053 L56.057,27.698 L54.146,27.397 L52.258,27.152 L51.050,27.023"/>
<path d="M51.554,27.302 L49.585,31.880 L47.611,36.610 L45.851,39.710 L44.084,42.924 L42.556,45.062 L41.018,47.290 L39.729,48.760 L38.426,50.300 L37.370,51.295 L36.299,52.344 L35.461,52.998 L34.608,53.695 L33.310,54.554 L32.360,55.070 L31.709,55.356 L31.310,55.494 L31.100,55.548 L31.398,55.536"/>
<path d="M29.183,51.723 L29.558,52.291 L30.035,52.961 L30.540,53.626 L31.070,54.285 L31.626,54.937 L32.207,55.582 L32.812,56.220 L33.440,56.851 L34.091,57.474 L34.764,58.089 L35.457,58.695 L36.903,59.881 L37.654,60.459 L39.207,61.588 L40.822,62.676 L42.491,63.721 L43.343,64.227 L45.077,65.206 L46.843,66.139 L48.635,67.025 L50.441,67.863 L52.255,68.653 L54.067,69.394 L55.869,70.088 L57.652,70.733 L59.408,71.331 L61.128,71.882 L63.627,72.624 L65.227,73.064 L67.513,73.645 L69.643,74.138 L71.600,74.550 L73.369,74.889 L75.421,75.241 L77.107,75.499 L79.926,75.887 L80.305,75.965 L80.392,76.000 L80.421,76.034"/>
<path d="M82.622,80.300 L82.885,79.970 L84.124,78.582 L85.353,77.353 L86.572,76.265 L87.780,75.306 L88.977,74.466 L90.163,73.734 L91.336,73.102 L92.496,72.561 L93.643,72.106 L94.775,71.730 L95.893,71.428 L96.996,71.197 L98.083,71.030 L99.154,70.925 L100.208,70.878 L101.245,70.885 L102.265,70.944 L103.266,71.053 L104.249,71.207 L105.212,71.405 L106.156,71.645 L107.080,71.924 L107.983,72.241 L108.866,72.593 L109.728,72.978 L110.567,73.396 L111.385,73.843 L112.180,74.318 L112.953,74.821 L113.702,75.348 L114.427,75.899 L115.129,76.473 L115.807,77.068 L116.459,77.682 L117.088,78.314 L117.691,78.963 L118.268,79.627 L118.820,80.306 L119.346,80.998 L119.845,81.702 L120.319,82.417 L120.765,83.141 L121.185,83.873 L121.577,84.612 L121.943,85.358 L122.280,86.108 L122.591,86.862 L122.873,87.619 L123.128,88.377 L123.355,89.136 L123.553,89.894 L123.723,90.651 L123.866,91.405 L123.979,92.155 L124.065,92.900 L124.122,93.640 L124.150,94.372 L124.150,95.097 L124.122,95.813 L124.065,96.519 L123.979,97.214 L123.866,97.896 L123.723,98.566 L123.553,99.222 L123.354,99.863 L123.128,100.488 L122.873,101.095 L122.591,101.685 L122.280,102.255 L121.943,102.806 L121.577,103.335 L121.185,103.842 L120.765,104.326 L120.318,104.785 L119.845,105.220 L119.346,105.628 L118.820,106.009 L118.268,106.361 L117.690,106.684 L117.088,106.976 L116.459,107.237 L115.806,107.464 L115.129,107.658 L114.427,107.816 L113.702,107.938 L112.953,108.022 L112.180,108.067 L111.385,108.072 L110.567,108.035 L109.728,107.956 L108.866,107.831 L107.983,107.661 L107.080,107.443 L106.156,107.175 L105.212,106.856 L104.248,106.484 L103.266,106.057 L102.265,105.573 L101.245,105.029 L100.208,104.422 L99.154,103.751 L98.083,103.012 L96.996,102.202 L95.893,101.318 L94.775,100.355 L93.643,99.308 L92.496,98.175 L91.336,96.947 L90.790,96.330 L90.491,96.055 L90.701,96.378 L90.571,96.064 L90.440,95.662 L90.306,95.147 L90.216,94.709 L90.141,94.242 L90.087,93.758 L90.054,93.270 L90.046,92.788 L90.087,92.026 L90.189,91.354 L90.274,91.009 L90.406,90.632 L90.540,90.362 L90.628,90.235 L90.701,90.157 L90.560,90.211"/>
<path d="M88.942,89.245 L88.501,88.763 L87.618,87.712 L86.643,86.466 L85.597,85.018 L84.486,83.356 L83.318,81.467 L82.102,79.328 L80.841,76.913 L79.541,74.186 L78.204,71.100 L76.835,67.593 L75.435,63.578 L74.009,58.933 L72.559,53.477 L71.085,46.924 L69.593,38.785 L68.083,28.107"/>
<path d="M64.513,29.692 L64.725,40.085 L64.940,48.311 L65.144,54.707 L65.334,59.795 L65.511,63.890 L65.673,67.199 L65.952,72.030 L66.171,75.130 L66.337,77.051 L66.500,78.537 L66.609,79.198 L66.598,79.181 L66.562,79.185 L66.514,79.293 L66.459,79.534 L66.403,79.915 L66.296,81.071 L66.219,82.379 L66.156,83.939 L66.102,86.078 L66.073,88.037 L66.060,90.557 L66.095,95.525 L66.205,100.703 L66.366,105.166 L66.496,107.700 L66.609,109.290 L66.584,109.083"/>
<path d="M72.323,106.732 L71.801,108.046 L70.720,111.447 L69.757,115.305"/>
<path d="M75.549,118.383 L73.888,123.671"/>
<path d="M76.655,115.625 L78.648,110.846 L81.481,105.450 L83.110,102.908"/>
<path d="M95.651,93.963 L96.187,94.093 L96.786,94.172 L97.286,94.177 L97.502,94.158 L97.876,94.092 L98.309,93.944 L98.526,93.829 L98.698,93.711 L98.884,93.542 L99.006,93.393 L99.112,93.208 L99.157,93.060"/>
<path d="M83.429,87.493 L71.365,83.284 L68.562,82.273 L65.853,81.259 L63.249,80.238 L60.761,79.209 L58.400,78.168 L56.175,77.116 L55.065,76.560 L53.711,75.849 L52.787,75.338 L51.808,74.772 L50.959,74.257 L50.062,73.687 L49.289,73.168 L48.478,72.595 L47.783,72.074 L47.059,71.499 L46.444,70.976 L45.807,70.400 L45.273,69.878 L44.725,69.303 L44.098,68.574 L43.699,68.056"/>
<path d="M36.520,61.027 L36.267,61.060 L36.474,60.979 L36.790,60.819 L37.285,60.517 L37.991,60.006 L38.939,59.198 L40.161,57.979 L41.686,56.201 L43.185,54.134 L43.536,53.670 L45.309,50.776 L45.727,50.124 L47.773,46.104 L48.256,45.194 L50.561,39.587 L51.107,38.312 L53.643,30.290 L54.244,28.460"/>
<path d="M54.692,27.430 L55.072,27.549 L55.637,27.440 L56.374,26.839 L57.296,25.351 L58.273,22.661 L58.405,22.337 L59.537,17.276 L59.690,16.664"/>
<path d="M55.715,16.503 L54.662,18.786 L53.261,22.006 L52.371,23.183 L51.184,24.848 L50.464,25.403 L49.636,26.079 L49.268,25.784 L45.583,32.704 L44.681,34.439 L41.443,38.961 L40.648,40.101 L37.895,43.089 L37.218,43.846 L34.953,45.796 L34.394,46.294 L32.150,47.851 L30.436,48.798 L29.189,49.338 L28.344,49.617 L27.833,49.738 L27.582,49.777 L27.910,49.792"/>
<path d="M26.293,43.934 L25.945,43.889 L26.300,43.864 L26.963,43.758 L28.053,43.479 L29.655,42.890 L31.854,41.794 L34.722,39.908 L38.308,36.812 L42.623,31.863 L47.623,23.947"/>
<path d="M47.219,23.193 L48.255,22.224 L49.214,20.711 L51.803,16.768"/>
<path d="M46.833,21.863 L44.703,24.796 L41.705,28.981 L39.905,30.707 L37.364,33.189 L35.908,34.188 L33.846,35.638 L32.721,36.186 L31.120,36.992 L29.114,37.676 L27.732,37.970 L26.871,38.058 L26.328,38.055 L26.658,38.128"/>
<path d="M35.983,105.257 L35.632,105.692 L35.364,106.135 L35.262,106.357 L35.182,106.580 L35.124,106.803 L35.089,107.026 L35.076,107.249 L35.086,107.471 L35.119,107.691 L35.175,107.911 L35.255,108.128 L35.358,108.344 L35.484,108.557 L35.634,108.767 L35.809,108.974 L36.228,109.378 L36.744,109.766 L37.038,109.952 L37.696,110.309 L38.450,110.643 L39.298,110.950 L39.757,111.092 L40.744,111.353 L41.821,111.580 L42.987,111.769 L43.602,111.849 L44.896,111.977 L45.574,112.024 L46.989,112.084 L47.725,112.095 L49.253,112.079 L50.044,112.052 L51.675,111.955 L52.515,111.885 L54.240,111.700 L55.124,111.585 L56.930,111.307"/>
<path d="M32.822,108.107 L33.182,108.087 L32.063,108.360 L31.473,108.523 L30.909,108.691 L29.867,109.043 L29.389,109.226 L28.522,109.604 L28.134,109.799 L27.604,110.097"/>
<path d="M26.071,112.799 L25.945,112.801 L26.460,112.689 L26.922,112.547 L27.473,112.342 L28.085,112.075 L28.738,111.749 L29.415,111.369 L30.103,110.941 L30.793,110.470 L31.477,109.962 L32.150,109.420 L32.661,108.978"/>
</g>
<g inkscape:groupmode="layer" inkscape:label="2 - dots" id="dots" fill="none" stroke="#262626" stroke-width="0.35" stroke-linecap="round" stroke-linejoin="round">
</g>
</svg>