<?xml version="1.0" encoding="UTF-8"?>
<svg xmlns="http://www.w3.org/2000/svg" xmlns:inkscape="http://www.inkscape.org/namespaces/inkscape" width="150mm" height="150mm" viewBox="0 0 150 150">
<g inkscape:groupmode="layer" inkscape:label="1 - lines" id="lines" fill="none" stroke="#262626" stroke-width="0.35" stroke-linecap="round" stroke-linejoin="round">
<path d="M33.125,34.158 L34.956,32.360 L36.402,31.045 L37.654,29.979 L38.978,28.918 L39.694,28.366 L40.371,27.862 L41.835,26.815 L43.657,25.612 L44.992,24.795 L46.677,23.826 L48.133,23.041 L49.346,22.438 L50.553,21.860 L52.138,21.164 L54.081,20.381 L55.709,19.780 L57.198,19.287 L58.419,18.905 L60.197,18.416 L62.307,17.906 L64.019,17.548 L65.721,17.253 L66.869,17.074 L68.736,16.848 L70.882,16.657 L73.015,16.540 L74.376,16.514 L75.372,16.506 L77.209,16.552 L79.254,16.666 L80.809,16.797 L83.213,17.083 L85.114,17.390 L85.917,17.538 L86.957,17.745 L88.566,18.099 L89.200,18.257 L90.637,18.638 L92.501,19.190 L94.486,19.843 L96.251,20.507 L98.122,21.274 L100.094,22.158 L101.822,23.023 L103.637,23.998 L105.682,25.199 L107.158,26.145 L108.341,26.943 L108.855,27.300 L110.500,28.510 L112.083,29.769 L113.289,30.781 L114.193,31.583 L115.073,32.391 L116.466,33.749 L117.644,34.960 L118.103,35.459 L119.115,36.591 L120.393,38.114 L121.504,39.516 L121.887,40.029 L122.818,41.313 L123.950,42.984 L124.920,44.507 L125.247,45.056 L126.041,46.432 L126.989,48.200 L127.787,49.795 L128.050,50.361 L128.687,51.783 L129.430,53.588 L130.044,55.201 L130.241,55.768 L130.714,57.188 L131.253,58.976 L131.739,60.782 L132.152,62.528 L132.561,64.587 L132.882,66.579 L132.982,67.312 L133.140,68.621 L133.259,69.818 L133.332,70.710 L133.434,72.387 L133.500,75.005 L133.431,77.658 L133.325,79.380 L133.116,81.584 L132.827,83.784 L132.514,85.662 L132.158,87.406 L131.967,88.290 L131.464,90.265 L130.854,92.356 L130.524,93.383 L130.178,94.399 L129.658,95.825 L129.441,96.389 L128.648,98.320 L127.674,100.439 L126.900,101.974 L125.967,103.695 L125.005,105.343 L124.236,106.581 L123.020,108.411 L121.991,109.835 L120.958,111.182 L119.745,112.674 L119.232,113.275 L117.889,114.775 L116.875,115.842 L115.349,117.351 L113.598,118.955 L112.347,120.022 L111.022,121.082 L109.629,122.138 L108.391,123.029 L106.624,124.210 L105.008,125.205 L104.165,125.700 L103.323,126.174 L101.571,127.112 L99.447,128.140 L97.862,128.836 L96.916,129.227 L95.919,129.620 L94.291,130.221 L92.803,130.713 L91.581,131.095 L89.803,131.584 L88.803,131.836 L87.693,132.094 L85.561,132.533 L83.131,132.927 L81.264,133.153 L80.274,133.250 L79.118,133.343 L77.434,133.441 L75.625,133.486 L74.628,133.494 L72.791,133.448 L71.875,133.405 L70.746,133.334 L68.742,133.158 L66.590,132.888 L64.886,132.610 L63.043,132.255 L61.433,131.901 L60.800,131.743 L59.363,131.363 L57.499,130.810 L55.514,130.157 L53.749,129.493 L51.878,128.726 L49.906,127.842 L48.178,126.977 L46.363,126.002 L44.318,124.801 L42.842,123.855 L41.659,123.057 L41.145,122.700 L39.500,121.490 L37.917,120.231 L36.711,119.219 L35.807,118.416 L34.927,117.609 L33.534,116.251 L32.356,115.040 L31.897,114.541 L30.885,113.409 L29.607,111.887 L28.496,110.484 L28.113,109.972 L27.182,108.687 L26.050,107.016 L24.969,105.312 L23.959,103.568 L23.578,102.873 L23.011,101.801 L22.122,100.018 L21.313,98.217 L21.011,97.504 L20.570,96.412 L19.888,94.611 L19.286,92.813 L19.067,92.111 L18.747,91.024 L18.261,89.218 L17.848,87.472 L17.702,86.755 L17.439,85.413 L17.118,83.422 L16.860,81.379 L16.668,79.290 L16.566,77.613 L16.500,75.002 L16.569,72.342 L16.675,70.620 L16.755,69.671 L16.884,68.417 L17.061,66.998 L17.173,66.217 L17.543,64.030 L18.033,61.710 L18.536,59.735 L18.703,59.133 L19.146,57.645 L19.476,56.617 L19.822,55.601 L20.559,53.611 L21.292,51.819 L21.642,51.041 L22.326,49.561 L23.100,48.026 L24.033,46.305 L24.576,45.359 L24.995,44.658 L25.981,43.083 L26.984,41.583 L28.009,40.165 L29.476,38.272 L30.768,36.725 L31.657,35.721 Z"/>
<path d="M42.063,27.198 L43.298,26.512 L44.588,25.860 L46.077,25.187 L46.926,24.841 L47.787,24.516 L49.332,23.995 L50.708,23.601 L51.462,23.416 L52.274,23.239 L53.157,23.074 L54.044,22.938 L54.943,22.828 L55.826,22.750 L56.704,22.701 L57.577,22.681 L58.433,22.689 L59.289,22.727 L60.121,22.790 L60.955,22.882 L61.721,22.990 L62.611,23.145"/>
<path d="M59.337,25.534 L58.336,25.538 L57.443,25.560 L56.480,25.610 L55.506,25.688 L54.583,25.791 L53.779,25.903 L52.352,26.160 L51.501,26.342 L50.523,26.574 L49.547,26.832 L48.695,27.080 L47.217,27.572 L46.378,27.883 L45.472,28.241 L44.598,28.611 L43.782,28.981 L42.161,29.785 L41.329,30.232 L40.529,30.686 L39.763,31.143 L38.218,32.135 L37.442,32.668 L35.987,33.738 L35.262,34.307 L34.524,34.910 L33.133,36.123 L31.808,37.373 L31.121,38.062 L30.483,38.727 L29.384,39.937 L28.166,41.382 L27.557,42.147 L26.574,43.451 L25.640,44.780 L25.103,45.587 L24.121,47.162"/>
<path d="M54.995,35.316 L54.025,35.854 L52.563,36.709 L51.823,37.176 L51.006,37.722 L50.085,38.373 L49.154,39.071 L48.214,39.816 L47.312,40.571 L46.418,41.361 L45.550,42.167 L44.700,42.999 L43.872,43.850 L43.067,44.721 L42.283,45.611 L41.523,46.520 L40.789,47.441 L40.076,48.385 L39.395,49.331 L38.730,50.306 L38.105,51.268 L37.500,52.253 L36.956,53.184 L36.463,54.074 L35.671,55.604 L34.898,57.234 L34.471,58.196 L34.053,59.190 L33.653,60.193 L32.967,62.071 L32.458,63.647 L32.024,65.145 L31.568,66.903 L31.181,68.611 L31.036,69.328 L30.786,70.718 L30.525,72.431 L30.288,74.380 L30.120,76.297 L30.019,78.118 L29.975,79.922 L29.979,81.560 L30.016,82.946 L30.105,84.635 L30.268,86.601 L30.504,88.625 L30.813,90.683 L31.197,92.769 L31.656,94.871 L31.920,95.947 L32.467,97.962 L32.957,99.580 L33.500,101.215 L34.236,103.220 L34.652,104.269 L35.517,106.286 L36.444,108.255 L37.427,110.165 L38.459,112.008 L39.531,113.778 L40.547,115.335 L41.415,116.586 L42.360,117.870 L43.472,119.282 L44.639,120.662 L45.809,121.950 L46.898,123.071 L48.251,124.369 L49.269,125.274 L49.824,125.742 L50.873,126.584 L51.907,127.357 L52.447,127.738 L53.508,128.446 L54.587,129.107 L55.142,129.424 L56.044,129.904"/>
<path d="M68.476,132.695 L67.523,132.314 L67.031,132.091 L66.151,131.651 L65.034,131.028 L64.590,130.758 L63.684,130.168 L62.558,129.373 L61.369,128.455 L59.917,127.230 L58.723,126.131 L57.714,125.136 L56.394,123.747 L54.952,122.113 L53.967,120.916 L53.487,120.307 L52.622,119.164 L51.464,117.543 L50.483,116.083 L49.470,114.484 L48.468,112.800 L47.486,111.035 L46.532,109.193 L46.075,108.261 L45.181,106.324 L44.399,104.491 L43.775,102.912 L43.141,101.186 L42.458,99.161 L41.810,97.033 L41.227,94.887 L40.961,93.808 L40.482,91.643 L40.085,89.535 L39.803,87.742 L39.593,86.123 L39.397,84.255 L39.240,82.207 L39.184,81.183 L39.125,79.212 L39.125,77.529 L39.168,75.957 L39.264,74.143 L39.402,72.467 L39.608,70.623 L39.853,68.905 L40.182,67.035 L40.551,65.264 L41.011,63.387 L41.527,61.547 L42.098,59.773 L42.439,58.811 L43.125,57.012 L43.816,55.383 L44.236,54.475 L44.708,53.510 L45.198,52.557 L46.115,50.880 L46.547,50.140 L47.023,49.366 L47.574,48.519 L48.205,47.596 L48.885,46.656 L49.586,45.735 L50.316,44.825 L51.043,43.961 L51.783,43.121 L52.464,42.380 L53.716,41.097 L54.338,40.500 L55.038,39.860 L55.784,39.209 L56.563,38.558 L57.467,37.836"/>
<path d="M59.554,41.274 L58.595,42.529 L57.611,43.912 L57.016,44.788 L56.431,45.690 L55.920,46.516 L55.494,47.255 L55.092,47.998 L54.197,49.771 L53.753,50.717 L53.361,51.603 L52.655,53.370 L51.966,55.289 L51.679,56.173 L51.408,57.081 L50.871,59.074 L50.647,59.997 L50.249,61.920 L50.061,62.958 L49.764,64.875 L49.525,66.928 L49.429,67.965 L49.299,69.874 L49.258,70.868 L49.224,72.940 L49.244,74.753 L49.325,76.706 L49.395,77.775 L49.559,79.704 L49.736,81.337 L49.987,83.181 L50.154,84.237 L50.550,86.418 L50.776,87.523 L51.017,88.619 L51.553,90.833 L52.095,92.851 L52.591,94.540 L53.188,96.406 L53.931,98.532 L54.751,100.685 L55.177,101.733 L55.623,102.793 L56.538,104.848 L57.489,106.841 L58.466,108.762 L58.968,109.704 L59.974,111.512 L60.987,113.234 L61.999,114.868 L62.974,116.366 L64.147,118.079 L65.413,119.822 L66.357,121.053 L67.332,122.267 L68.328,123.451 L69.329,124.586 L70.780,126.131 L71.911,127.257 L73.158,128.422 L74.240,129.361 L75.300,130.212 L76.244,130.907 L77.335,131.634 L78.072,132.071 L78.437,132.269 L78.780,132.443 L79.452,132.742"/>
<path d="M90.902,131.272 L90.906,131.292 L90.889,131.298 L90.755,131.215 L90.187,130.773 L89.621,130.290 L88.410,129.153 L87.174,127.940 L86.084,126.816 L84.881,125.518 L83.559,124.022 L82.635,122.936 L81.210,121.195 L80.224,119.944 L79.226,118.637 L78.223,117.280 L77.223,115.883 L76.231,114.451 L75.361,113.153 L74.243,111.424 L73.293,109.901 L72.296,108.240 L70.774,105.567 L69.776,103.713 L69.297,102.793 L68.319,100.841 L67.824,99.812 L66.886,97.780 L66.441,96.775 L65.554,94.680 L65.119,93.601 L64.710,92.556 L63.916,90.414 L63.174,88.264 L62.826,87.190 L62.176,85.055 L61.870,83.976 L61.590,82.933 L61.110,81.006 L60.920,80.175 L60.570,78.509 L60.185,76.464 L59.992,75.330 L59.648,73.005 L59.507,71.858 L59.309,69.820 L59.192,67.969 L59.146,66.937 L59.094,64.580 L59.099,63.413 L59.123,62.397 L59.217,60.636 L59.402,58.488 L59.528,57.374 L59.662,56.379 L59.806,55.472 L60.160,53.539 L60.366,52.554 L60.579,51.648 L60.810,50.770 L61.340,48.949 L61.624,48.074 L61.928,47.220 L62.579,45.536 L62.875,44.827 L63.205,44.094"/>
<path d="M68.171,44.891 L67.791,47.357 L67.691,48.195 L67.608,49.153 L67.544,50.192 L67.432,52.942 L67.426,53.782 L67.442,54.745 L67.487,55.847 L67.558,57.014 L67.654,58.186 L67.771,59.367 L68.038,61.604 L68.295,63.401 L68.440,64.263 L68.836,66.330 L69.347,68.633 L69.921,70.895 L70.548,73.112 L71.220,75.275 L71.928,77.378 L72.285,78.385 L73.033,80.386 L73.756,82.211 L74.700,84.453 L75.760,86.832 L76.459,88.334 L77.253,89.972 L78.457,92.359 L79.685,94.663 L81.157,97.302 L82.668,99.887 L83.643,101.495 L84.587,103.015 L86.218,105.567 L88.002,108.247 L89.529,110.464 L91.534,113.278 L92.990,115.271 L96.461,119.933 L97.657,121.566 L98.983,123.442 L99.450,124.133 L99.846,124.753 L100.264,125.486 L100.525,126.045 L100.675,126.443 L100.725,126.619 L100.772,126.904 L100.767,127.168 L100.742,127.291 L100.645,127.489 L100.475,127.651 L100.361,127.717 L100.101,127.806"/>
<path d="M109.488,122.232 L109.818,122.010 L110.147,121.720 L110.392,121.429 L110.598,121.089 L110.736,120.754 L110.832,120.364 L110.875,119.999 L110.875,119.586 L110.816,119.069 L110.760,118.787 L110.603,118.189 L110.407,117.602 L110.197,117.061 L109.915,116.429 L109.286,115.210 L108.773,114.317 L107.869,112.855 L107.194,111.818 L106.225,110.376 L105.239,108.951 L103.925,107.102 L98.536,99.652 L95.533,95.385 L94.078,93.279 L92.698,91.236 L91.610,89.583 L89.716,86.632 L88.631,84.890 L87.088,82.335 L85.871,80.233 L84.571,77.916 L83.849,76.591 L82.969,74.905 L81.988,72.956 L80.756,70.423 L80.031,68.855 L79.169,66.885 L78.723,65.818 L77.872,63.673 L77.073,61.510 L76.692,60.414 L76.332,59.340 L75.655,57.172 L75.048,55.017 L74.514,52.884 L74.273,51.819 L74.052,50.782 L73.663,48.717 L73.499,47.710 L73.218,45.721"/>
<path d="M78.553,45.711 L78.969,46.731 L79.750,48.568 L80.634,50.499 L81.475,52.218 L81.838,52.924 L83.709,56.398 L84.266,57.404 L85.267,59.148 L86.659,61.432 L88.359,64.142 L90.477,67.338 L91.555,68.917 L93.777,72.061 L95.413,74.304 L97.018,76.459 L99.642,79.897 L102.192,83.161 L108.585,91.185 L111.000,94.256 L112.573,96.292 L114.031,98.236 L115.348,100.074 L116.144,101.245 L117.043,102.650 L117.811,103.949 L118.579,105.391 L119.003,106.295 L119.187,106.728 L119.496,107.546 L119.624,107.939 L119.732,108.312 L119.895,109.023 L119.984,109.610 L120.021,110.076 L120.025,110.607 L119.981,111.165 L119.880,111.706 L119.806,111.977"/>
<path d="M127.269,99.807 L127.277,99.406 L127.235,98.617 L127.122,97.823 L126.934,96.999 L126.668,96.130 L126.505,95.680 L126.113,94.740 L125.886,94.254 L125.365,93.246 L125.068,92.719 L124.413,91.638 L124.060,91.091 L123.672,90.512 L122.846,89.342 L121.960,88.157 L121.125,87.089 L119.880,85.560 L118.833,84.324 L117.672,82.999 L115.849,80.981 L113.949,78.932 L110.641,75.414 L103.569,68.000 L100.160,64.371 L96.792,60.703 L94.751,58.425 L93.394,56.881 L91.411,54.586 L88.858,51.529 L85.326,47.063 L84.787,46.344 L83.607,44.701"/>
<path d="M87.489,42.437 L88.850,43.605 L90.283,44.867 L93.254,47.422 L97.935,51.353 L102.755,55.335 L107.081,58.874 L112.346,63.235 L114.662,65.182 L116.761,66.994 L119.442,69.384 L121.348,71.146 L123.173,72.910 L124.313,74.066 L125.389,75.207 L126.392,76.329 L126.867,76.885 L127.752,77.973 L128.552,79.035 L128.916,79.551 L129.585,80.569 L129.888,81.070 L130.423,82.040 L130.870,82.976 L131.234,83.883 L131.522,84.780 L131.637,85.226 L131.734,85.680 L131.809,86.127 L131.865,86.583"/>
<path d="M132.958,71.825 L132.715,71.168 L132.330,70.314 L132.113,69.894 L131.634,69.067 L131.100,68.253 L130.494,67.424 L129.792,66.554 L129.410,66.111 L128.579,65.206 L128.134,64.749 L127.193,63.831 L126.182,62.906 L124.556,61.517 L123.433,60.610 L122.270,59.709 L121.081,58.824 L120.063,58.092 L117.607,56.381 L114.426,54.267 L110.917,52.029 L108.103,50.281 L103.148,47.247 L98.089,44.253 L94.800,42.271 L92.001,40.622 L90.526,39.726"/>
<path d="M93.553,37.164 L96.725,38.392 L100.882,40.067 L104.974,41.750 L107.970,43.026 L110.806,44.289 L113.494,45.547 L116.141,46.840 L118.207,47.909 L120.535,49.208 L122.077,50.129 L123.067,50.762 L124.199,51.519 L125.053,52.132 L125.729,52.642 L126.410,53.183 L127.088,53.761 L127.697,54.314 L128.356,54.958 L128.675,55.293 L129.254,55.948 L129.710,56.522 L130.103,57.067"/>
<path d="M123.906,44.136 L122.980,43.420 L122.619,43.166 L121.819,42.647 L120.986,42.153 L119.576,41.404 L118.024,40.674 L116.884,40.185 L115.062,39.470 L113.728,38.989 L111.768,38.327 L110.219,37.842 L107.178,36.957 L105.414,36.479 L101.328,35.453 L99.268,34.955 L97.194,34.477 L94.559,33.923"/>
<path d="M93.900,30.624 L95.414,30.686 L97.001,30.777 L101.124,31.097 L102.726,31.258 L104.916,31.505 L107.668,31.898 L108.997,32.129 L110.207,32.367 L111.443,32.647 L112.498,32.923 L113.551,33.234 L114.503,33.561 L115.307,33.882 L116.144,34.266"/>
<path d="M107.411,27.029 L106.671,26.897 L106.219,26.839 L105.186,26.753 L103.665,26.696 L102.624,26.693 L102.014,26.708 L100.119,26.792 L98.860,26.871 L96.166,27.114 L93.326,27.420"/>
<path d="M90.327,24.604 L90.945,24.387 L94.731,23.153 L96.142,22.751 L97.612,22.401 L98.690,22.205 L99.278,22.147 L99.530,22.141 L99.763,22.148 L100.148,22.208 L100.302,22.258 L100.437,22.324 L100.572,22.428"/>
<path d="M90.867,18.718 L90.915,18.707 L90.891,18.745 L90.393,19.237 L89.740,19.813 L88.620,20.725 L86.750,22.187"/>
<path d="M81.886,20.733 L82.173,20.043 L82.272,19.761 L82.402,19.268 L82.544,18.491 L82.566,18.050 L82.546,17.885 L82.509,17.734 L82.374,17.418 L82.283,17.278 L82.189,17.169 L82.089,17.086 L81.826,16.947 L81.663,16.895 L81.491,16.862 L81.111,16.844"/>
<path d="M71.857,20.529 L71.168,19.916 L70.512,19.402 L70.151,19.165 L69.740,18.930 L68.918,18.534 L68.531,18.375 L68.104,18.225 L67.612,18.082 L67.079,17.959 L66.558,17.865 L65.626,17.756"/>
<path d="M67.101,21.475 L66.619,21.257 L66.105,21.048 L65.473,20.822 L64.788,20.610 L64.098,20.428 L63.428,20.275 L62.279,20.071 L61.744,20.003 L61.168,19.949 L60.502,19.912 L59.791,19.899 L59.022,19.916 L58.259,19.961 L57.467,20.038 L56.691,20.142 L55.894,20.277"/>
<path d="M56.795,28.387 L55.375,28.647 L54.485,28.829 L53.537,29.041 L52.620,29.271 L51.735,29.518 L49.940,30.089 L49.038,30.408 L48.139,30.751 L46.355,31.504 L45.479,31.909 L44.576,32.354 L43.648,32.840 L42.004,33.768 L41.232,34.238 L40.373,34.791 L39.446,35.417 L38.561,36.045 L37.772,36.629 L37.041,37.196 L36.284,37.810 L35.455,38.517 L34.593,39.288 L33.778,40.051 L32.476,41.343 L31.212,42.705 L30.480,43.546 L29.731,44.447 L29.014,45.352 L28.357,46.221 L27.311,47.685 L26.386,49.081 L25.868,49.911 L25.340,50.795 L24.808,51.730 L24.296,52.676 L23.798,53.644 L23.314,54.637 L22.854,55.632 L22.399,56.673 L21.978,57.693 L21.571,58.742 L21.215,59.714 L20.894,60.645 L20.359,62.341 L19.829,64.249 L19.554,65.367 L19.304,66.480 L19.066,67.657 L18.864,68.785 L18.677,69.967 L18.523,71.104 L18.388,72.283 L18.282,73.422 L18.197,74.593 L18.139,75.728 L18.103,76.886 L18.091,78.010 L18.102,79.151 L18.135,80.258 L18.191,81.376 L18.266,82.462 L18.363,83.552 L18.478,84.612 L18.614,85.674 L18.940,87.754 L19.130,88.783 L19.345,89.829 L19.577,90.865 L19.836,91.919 L20.112,92.959 L20.415,94.017 L20.736,95.057 L21.084,96.111 L21.448,97.146 L21.840,98.191 L22.422,99.627"/>
<path d="M40.950,122.045 L39.947,121.159 L38.836,120.106 L37.843,119.102 L36.688,117.855 L35.417,116.376 L34.779,115.587 L34.151,114.779 L33.535,113.951 L32.919,113.089 L32.328,112.225 L31.730,111.311 L31.168,110.413 L30.612,109.485 L29.667,107.803 L28.876,106.278 L28.040,104.535 L27.585,103.516 L27.154,102.499 L26.722,101.421 L26.328,100.381 L25.940,99.293 L25.587,98.236 L25.244,97.143 L24.932,96.076 L24.635,94.985 L24.365,93.912 L24.114,92.828 L23.887,91.756 L23.680,90.684 L23.495,89.617 L23.188,87.506 L22.961,85.431 L22.812,83.389 L22.734,81.335 L22.731,79.212 L22.759,78.143 L22.809,77.041 L22.878,75.958 L22.971,74.851 L23.083,73.759 L23.219,72.652 L23.375,71.559 L23.555,70.455 L23.755,69.367 L23.978,68.272 L24.221,67.195 L24.488,66.113 L24.771,65.053 L25.080,63.988 L25.402,62.952 L25.749,61.913 L26.103,60.918 L26.479,59.925 L26.862,58.973 L27.271,58.008 L27.694,57.066 L28.150,56.102 L28.622,55.154 L29.130,54.186 L29.654,53.235 L30.216,52.266 L30.794,51.318 L31.412,50.352 L32.044,49.414 L32.722,48.454 L33.406,47.534 L34.142,46.593 L34.865,45.712 L35.586,44.874 L36.830,43.519 L38.175,42.169 L39.019,41.372 L39.918,40.560 L40.861,39.749 L41.808,38.978 L42.746,38.255 L43.634,37.609 L44.437,37.056 L45.994,36.055 L46.912,35.502 L47.937,34.916 L48.955,34.367 L49.857,33.912 L51.442,33.182 L52.340,32.798 L53.316,32.405 L54.264,32.053 L55.099,31.770 L56.005,31.489"/>
</g>
<g inkscape:groupmode="layer" inkscape:label="2 - dots" id="dots" fill="none" stroke="#262626" stroke-width="0.35" stroke-linecap="round" stroke-linejoin="round">
</g>
</svg>