<?xml version="1.0" encoding="UTF-8"?>
<svg xmlns="http://www.w3.org/2000/svg" xmlns:inkscape="http://www.inkscape.org/namespaces/inkscape" width="150mm" height="150mm" viewBox="0 0 150 150">
<g inkscape:groupmode="layer" inkscape:label="1 - lines" id="lines" fill="none" stroke="#262626" stroke-width="0.35" stroke-linecap="round" stroke-linejoin="round">
<path d="M32.690,46.225 L31.459,47.135 L30.259,48.089 L29.090,49.085 L27.946,50.117 L26.844,51.201 L25.772,52.325 L24.740,53.496 L23.752,54.715 L23.133,55.527 L22.805,55.979 L21.910,57.293 L21.065,58.654 L20.277,60.063 L20.037,60.527 L19.555,61.520 L18.906,62.976 L18.307,64.563 L18.023,65.402 L17.794,66.144 L17.343,67.814 L17.015,69.406 L16.877,70.214 L16.755,71.075 L16.592,72.608 L16.508,74.456 L16.503,74.999 L16.527,76.154 L16.634,77.847 L16.873,79.783 L17.131,81.189 L17.349,82.184 L17.508,82.824 L17.965,84.430 L18.511,85.996 L19.123,87.525 L19.806,89.010 L20.037,89.471 L20.557,90.447 L21.426,91.950 L22.229,93.183 L23.127,94.470 L24.105,95.727 L25.206,97.047 L26.156,98.082 L27.237,99.193 L28.356,100.257 L29.509,101.276 L30.687,102.260 L31.901,103.195 L33.140,104.092 L34.402,104.957 L35.691,105.779 L37.006,106.563 L38.342,107.314 L39.697,108.035 L40.463,108.419 L41.074,108.718 L42.474,109.364 L43.891,109.980 L45.325,110.565 L46.776,111.121 L48.243,111.647 L49.727,112.135 L51.227,112.593 L52.740,113.021 L54.266,113.420 L55.804,113.790 L57.353,114.131 L58.913,114.442 L60.482,114.724 L62.061,114.977 L63.646,115.200 L65.239,115.394 L66.838,115.556 L68.442,115.688 L70.050,115.792 L71.660,115.867 L73.273,115.912 L74.887,115.929 L76.501,115.916 L78.114,115.875 L79.725,115.804 L81.333,115.705 L82.938,115.576 L84.537,115.418 L86.131,115.229 L87.718,115.009 L89.297,114.761 L90.868,114.483 L92.429,114.176 L93.979,113.839 L95.519,113.473 L97.047,113.078 L98.562,112.654 L100.063,112.201 L101.459,111.747 L103.020,111.196 L104.473,110.644 L105.909,110.063 L107.329,109.451 L108.731,108.810 L110.112,108.132 L111.470,107.416 L112.808,106.669 L114.125,105.890 L115.419,105.074 L116.684,104.214 L117.927,103.321 L119.146,102.394 L120.327,101.415 L121.484,100.401 L122.609,99.344 L123.694,98.239 L124.794,97.047 L125.756,95.897 L126.868,94.470 L127.645,93.366 L128.522,92.033 L129.332,90.643 L130.093,89.213 L130.783,87.733 L131.086,87.022 L131.407,86.211 L131.964,84.650 L132.430,83.049 L132.649,82.184 L132.821,81.418 L133.132,79.761 L133.340,78.081 L133.401,77.390 L133.461,76.390 L133.497,74.999 L133.431,72.996 L133.271,71.308 L133.122,70.214 L133.026,69.636 L132.694,67.986 L132.268,66.367 L131.976,65.402 L131.768,64.780 L131.089,62.976 L130.539,61.726 L129.963,60.527 L129.045,58.848 L128.209,57.479 L127.320,56.159 L126.864,55.527 L126.381,54.887 L125.397,53.663 L124.372,52.484 L123.305,51.355 L122.209,50.263 L121.069,49.227 L119.903,48.225 L118.709,47.264 L117.481,46.350 L116.230,45.469 L114.957,44.622 L113.652,43.823 L112.327,43.055 L110.982,42.319 L109.617,41.614 L108.227,40.952 L106.818,40.322 L105.393,39.721 L103.950,39.151 L102.491,38.610 L101.015,38.102 L99.523,37.630 L98.016,37.187 L96.497,36.773 L94.964,36.389 L93.421,36.034 L91.866,35.708 L90.301,35.411 L88.728,35.144 L87.146,34.906 L85.556,34.697 L83.960,34.519 L82.359,34.372 L80.753,34.254 L79.143,34.165 L77.531,34.105 L75.918,34.073 L74.304,34.071 L72.691,34.098 L71.079,34.155 L69.469,34.240 L67.862,34.354 L65.562,34.572 L64.663,34.670 L63.073,34.875 L61.490,35.109 L59.915,35.372 L58.349,35.665 L56.793,35.987 L55.247,36.338 L53.714,36.718 L52.192,37.128 L50.684,37.567 L49.189,38.035 L47.711,38.537 L46.250,39.074 L44.805,39.640 L43.377,40.237 L41.966,40.863 L40.573,41.520 L39.205,42.219 L37.857,42.951 L36.529,43.714 L35.222,44.509 L33.944,45.349 Z"/>
<path d="M29.628,48.879 L30.035,48.575 L31.015,47.903 L32.036,47.275 L33.098,46.692 L34.195,46.146 L35.335,45.650 L36.519,45.207 L37.645,44.838 L39.018,44.481 L40.183,44.231 L41.701,44.004 L42.526,43.916 L43.115,43.870 L44.576,43.813 L46.092,43.851 L46.810,43.897 L47.656,43.979 L48.789,44.127 L49.268,44.206 L50.672,44.485 L52.463,44.955 L54.399,45.614 L55.779,46.182 L56.201,46.374 L57.307,46.913 L58.045,47.308 L58.748,47.707 L60.102,48.555 L61.364,49.454 L61.837,49.824 L62.535,50.392 L63.616,51.357 L64.599,52.352 L65.491,53.358 L66.282,54.378 L66.977,55.401 L67.574,56.418 L68.069,57.429 L68.462,58.427 L68.755,59.406 L68.944,60.360 L69.031,61.287 L69.015,62.182 L68.896,63.042 L68.671,63.866 L68.339,64.655 L67.905,65.401 L67.360,66.114 L66.710,66.787 L65.949,67.426 L65.073,68.039 L64.077,68.633 L62.956,69.218 L61.702,69.805 L58.136,71.356"/>
<path d="M57.760,71.718 L56.440,72.283 L55.827,72.573 L55.250,72.867 L54.708,73.166 L53.723,73.743 L53.288,74.029 L52.528,74.573 L52.205,74.830 L51.670,75.297 L51.284,75.690 L50.952,76.091 L50.876,76.225 L50.865,76.224 L50.931,76.091 L50.988,75.915 L51.041,75.688 L51.104,75.144 L51.082,74.571 L51.040,74.309 L50.988,74.083 L50.888,73.798 L50.865,73.771 L50.976,73.942 L51.188,74.203 L51.532,74.565 L51.756,74.779 L52.316,75.259 L52.655,75.518 L53.440,76.072 L53.890,76.358 L54.378,76.645 L55.454,77.237 L56.669,77.817 L58.011,78.381 L58.725,78.656 L60.237,79.175 L61.851,79.648 L63.553,80.073 L65.330,80.448 L67.172,80.761 L69.066,81.008 L70.999,81.187 L72.958,81.296 L74.930,81.334 L76.903,81.301 L78.864,81.197 L80.799,81.023 L82.696,80.780 L84.542,80.472 L86.324,80.101 L88.032,79.679 L89.652,79.210 L91.172,78.693 L92.578,78.136 L93.869,77.570 L94.464,77.278 L95.024,76.981 L96.043,76.398 L96.498,76.112 L97.293,75.555 L97.637,75.295 L98.207,74.809 L98.438,74.594 L98.791,74.225 L98.899,74.089 L98.911,74.073 L99.131,73.780 L99.111,73.798 L99.067,73.907 L98.957,74.309 L98.916,74.571 L98.894,75.144 L98.957,75.688 L99.066,76.091 L99.132,76.228 L98.979,76.002 L98.737,75.713 L98.360,75.327 L97.835,74.865 L97.518,74.610 L96.767,74.069 L96.338,73.782 L95.869,73.496 L94.826,72.909 L93.645,72.323 L93.004,72.039 L91.634,71.478 L90.149,70.948 L88.560,70.463 L86.878,70.028 L85.119,69.637 L83.292,69.308 L81.410,69.045 L79.486,68.849 L77.532,68.722 L75.561,68.666 L73.587,68.682 L71.622,68.768 L69.680,68.925 L67.772,69.150 L65.912,69.442 L64.113,69.798 L62.386,70.209 L60.742,70.666 L59.196,71.171 Z"/>
<path d="M52.594,74.348 L51.680,75.014 L51.184,75.400 L50.704,75.800 L50.239,76.214 L49.789,76.641 L49.353,77.082 L48.932,77.537 L48.133,78.489 L47.389,79.498 L46.699,80.567 L46.063,81.699 L45.476,82.891 L44.929,84.142 L44.431,85.464 L43.963,86.849 L43.742,87.570 L43.316,89.066 L42.055,93.971 L41.648,95.427 L41.231,96.735 L40.794,97.903 L40.330,98.938 L39.832,99.847 L39.294,100.636 L38.712,101.310 L38.090,101.863 L37.420,102.306 L36.710,102.632 L35.958,102.843 L35.166,102.942 L34.337,102.929 L33.474,102.803 L32.580,102.564 L31.659,102.215 L30.718,101.753 L29.762,101.176 L29.324,100.867"/>
<path d="M28.244,99.919 L27.144,98.657 L26.164,97.411 L25.208,96.073 L24.289,94.636 L23.408,93.110 L22.573,91.495 L21.791,89.794 L21.072,88.004 L20.424,86.128 L19.913,84.379 L19.472,82.554 L19.128,80.774 L18.999,79.966 L18.874,79.039 L18.699,77.350 L18.605,75.710 L18.587,74.120 L18.627,72.575 L18.734,71.080 L18.895,69.630 L19.109,68.227 L19.251,67.450 L19.370,66.867 L19.679,65.552 L20.022,64.273 L20.416,63.042 L20.841,61.846 L21.295,60.683 L21.790,59.562 L22.315,58.474 L22.867,57.418 L23.446,56.391 L24.052,55.395 L24.558,54.622 L25.350,53.494 L26.039,52.587 L26.755,51.707 L27.497,50.853 L28.425,49.865"/>
<path d="M23.367,55.571 L24.257,54.566 L25.100,53.708 L25.983,52.890 L26.904,52.115 L27.865,51.382 L28.864,50.691 L29.906,50.050 L30.995,49.463 L32.123,48.922 L33.293,48.434 L34.516,48.013 L35.776,47.642 L37.094,47.353 L38.452,47.122 L39.869,46.984 L40.724,46.936 L41.332,46.922 L42.886,46.951 L44.417,47.091 L44.895,47.153 L46.041,47.344 L46.783,47.494 L47.719,47.722 L48.556,47.955 L49.451,48.243 L50.221,48.518 L51.239,48.929 L51.780,49.167 L53.082,49.806 L54.589,50.677 L55.838,51.518 L56.990,52.396 L58.032,53.319 L59.039,54.330 L59.811,55.227 L60.543,56.204 L61.170,57.184 L61.688,58.168 L62.096,59.147 L62.396,60.116 L62.587,61.070 L62.667,62.005 L62.633,62.922 L62.484,63.818 L62.222,64.687 L61.840,65.538 L61.342,66.363 L60.716,67.176 L59.961,67.977 L59.070,68.776 L58.026,69.596 L56.820,70.449 L52.851,73.065 L51.068,74.336 L49.953,75.203 L49.419,75.649 L48.391,76.565 L47.414,77.514 L46.491,78.509 L45.885,79.227 L45.202,80.094 L44.403,81.217 L43.650,82.396 L42.932,83.629 L42.246,84.921 L41.917,85.593 L40.951,87.702 L38.991,92.379 L38.344,93.805 L37.712,95.048 L37.084,96.116 L36.442,97.034 L35.778,97.807 L35.092,98.440 L34.372,98.944 L33.625,99.315 L32.844,99.563 L32.034,99.684 L31.198,99.679 L30.335,99.553 L29.449,99.305 L28.544,98.936 L27.625,98.446 L26.699,97.833 L25.767,97.103 L24.833,96.257"/>
<path d="M23.569,94.833 L23.070,94.105 L22.196,92.667 L21.361,91.126 L20.575,89.484 L19.947,87.991 L19.188,85.885 L18.608,83.924 L18.234,82.379 L18.121,81.850 L17.887,80.595 L17.738,79.657 L17.633,78.858 L17.475,77.339 L17.380,75.525 L17.370,73.932 L17.423,72.383 L17.551,70.887 L17.726,69.430 L17.969,68.026 L18.254,66.660 L18.401,66.058 L18.591,65.340 L18.975,64.063 L19.396,62.823 L19.860,61.624 L20.367,60.467 L20.909,59.344 L21.484,58.257 L22.093,57.204"/>
<path d="M26.560,64.358 L25.544,65.006 L24.627,65.769 L23.787,66.618 L23.027,67.553 L22.350,68.569 L21.757,69.665 L21.274,70.860 L20.891,72.137 L20.605,73.489 L20.490,74.973 L20.487,75.964 L20.531,76.564 L20.718,77.884 L20.826,78.329 L21.165,79.437 L21.605,80.419 L21.751,80.710 L22.460,81.714 L23.258,82.486 L24.140,83.021 L25.103,83.318 L25.548,83.343 L26.166,83.348 L27.093,83.151 L27.349,83.081 L28.206,82.686 L28.734,82.411 L29.151,82.129 L29.986,81.513 L30.528,81.080 L31.467,80.185 L32.145,79.489 L32.798,78.778 L33.427,78.050 L34.034,77.302 L34.623,76.533 L35.194,75.739 L35.750,74.916 L36.458,73.785 L36.794,73.140 L37.264,72.149 L37.476,71.657 L37.673,71.043 L37.945,70.047 L37.983,69.755 L38.075,68.700 L38.014,68.009 L37.973,67.684 L37.952,67.513 L37.601,66.463 L37.047,65.525 L36.291,64.702 L35.336,64.000 L35.065,63.863 L34.155,63.459 L33.141,63.181 L32.737,63.099 L31.550,63.011 L31.014,63.015 L30.136,63.108 L28.831,63.371 L27.658,63.814 Z"/>
<path d="M17.359,68.458 L17.730,67.127 L18.153,65.839 L18.629,64.597 L19.162,63.405 L19.750,62.263 L20.386,61.167 L21.070,60.116 L21.801,59.113 L22.579,58.156 L23.402,57.248 L24.272,56.388 L25.186,55.577 L26.145,54.815 L26.680,54.437 L27.154,54.111 L28.212,53.466 L29.315,52.876 L30.592,52.288 L31.668,51.884 L32.918,51.489 L34.223,51.172 L35.579,50.934 L36.092,50.871 L36.994,50.790 L38.458,50.733 L39.989,50.798 L40.433,50.836 L41.581,50.984 L42.331,51.111 L43.236,51.308 L44.081,51.525 L44.961,51.797 L45.696,52.053 L46.763,52.487 L47.184,52.674 L48.550,53.372 L49.790,54.142 L50.918,54.958 L51.924,55.823 L52.820,56.716 L53.592,57.643 L54.248,58.587 L54.788,59.544 L55.208,60.509 L55.507,61.479 L55.684,62.449 L55.738,63.416 L55.706,63.865 L55.664,64.383 L55.458,65.349 L55.117,66.316 L54.724,67.113 L54.636,67.289 L54.002,68.280 L53.201,69.308 L52.216,70.393 L51.001,71.591 L49.486,72.990 L48.364,73.997 L46.644,75.610 L46.094,76.146 L45.556,76.688 L44.517,77.787 L44.014,78.347 L43.038,79.487 L42.099,80.663 L41.191,81.879 L40.310,83.141 L39.879,83.791 L39.453,84.455 L38.178,86.525 L37.387,87.872 L36.284,89.693 L35.332,91.160 L34.459,92.361 L33.621,93.350 L32.799,94.149 L31.980,94.775 L31.154,95.244 L30.316,95.562 L29.466,95.733 L28.603,95.760 L27.727,95.649 L26.841,95.402 L25.947,95.020 L25.050,94.503 L24.153,93.854 L23.261,93.074 L22.389,92.153 L21.530,91.106 L20.705,89.918 L19.910,88.600 L19.168,87.135 L18.701,86.050"/>
<path d="M18.301,85.170 L18.018,84.254 L17.732,83.228 L17.532,82.412 L17.259,81.147 L17.161,80.618 L16.892,78.872 L16.732,77.182 L16.689,76.500 L16.654,75.540 L16.648,73.942 L16.730,72.402 L16.878,70.826"/>
<path d="M17.458,75.336 L17.477,74.572 L17.523,73.791 L17.684,72.309 L17.931,70.889 L18.263,69.532 L18.661,68.226 L19.133,66.981 L19.677,65.797 L20.280,64.667 L20.943,63.593 L21.665,62.576 L22.444,61.617 L23.281,60.718 L24.173,59.879 L25.120,59.102 L26.120,58.387 L27.181,57.746 L28.303,57.182 L29.476,56.688 L30.060,56.485 L30.713,56.282 L32.012,55.969 L32.700,55.847 L33.376,55.757 L34.804,55.652 L36.317,55.694 L36.914,55.745 L37.911,55.888 L38.671,56.035 L39.602,56.277 L40.246,56.475 L41.660,57.031 L42.917,57.689 L44.030,58.423 L45.001,59.222 L45.839,60.069 L46.533,60.967 L47.089,61.903 L47.508,62.869 L47.785,63.866 L47.912,64.899 L47.892,65.957 L47.856,66.194 L47.707,67.060 L47.350,68.211 L46.799,69.438 L46.021,70.774 L44.940,72.316 L43.388,74.268 L41.437,76.570 L38.747,79.818 L36.640,82.471 L34.776,84.861 L33.186,86.774 L31.917,88.123 L30.802,89.114 L29.765,89.842 L28.776,90.345 L27.815,90.652 L26.879,90.770 L25.952,90.722 L25.043,90.502 L24.148,90.121 L23.268,89.583 L22.409,88.888 L21.583,88.028 L20.787,87.013 L20.035,85.835 L19.338,84.488 L18.717,82.957 L18.484,82.254 L18.184,81.234 L17.986,80.397 L17.768,79.295"/>
<path d="M33.825,104.427 L32.760,103.533 L31.700,102.542 L31.175,102.011 L30.647,101.459 L29.607,100.287 L28.592,99.022 L27.601,97.674 L26.640,96.245 L25.726,94.728 L25.471,94.277 L24.855,93.136 L24.440,92.310 L24.037,91.468 L23.542,90.357 L23.277,89.729 L22.769,88.426 L22.583,87.919 L22.114,86.525 L21.571,84.660 L21.423,84.094 L21.130,82.836 L20.972,82.082 L20.785,81.056 L20.617,80.005 L20.527,79.323 L20.348,77.636 L20.238,75.642 L20.226,74.417 L20.242,73.342 L20.357,71.394 L20.511,69.957 L20.729,68.436 L20.962,67.222 L21.248,65.918 L21.584,64.664 L21.948,63.446 L22.157,62.809 L22.347,62.267 L22.781,61.129 L23.237,60.021 L23.522,59.378 L24.235,57.911 L24.770,56.902 L25.324,55.919 L25.900,54.961 L26.283,54.362 L27.119,53.129 L27.760,52.248 L28.421,51.389 L29.102,50.552 L29.803,49.735 L30.526,48.939 L31.270,48.162 L32.040,47.408 L32.837,46.678 L33.658,45.968 L34.505,45.279 L35.378,44.610 L36.165,44.055 L36.571,43.918 L37.674,43.418 L38.812,42.953 L39.994,42.538 L41.219,42.171 L41.789,42.023 L42.489,41.860 L44.100,41.558 L45.171,41.420 L46.290,41.316 L48.045,41.254 L48.383,41.255 L49.558,41.296 L50.391,41.352 L51.119,41.424 L52.729,41.647 L54.190,41.931 L55.983,42.389 L57.705,42.944 L59.624,43.702 L60.936,44.307 L62.443,45.096 L63.876,45.943 L65.162,46.791 L66.506,47.789 L67.042,48.222 L67.699,48.773 L68.810,49.783 L69.831,50.824 L70.769,51.873 L71.611,52.941 L72.366,54.005 L73.026,55.070 L73.592,56.126 L74.066,57.164 L74.442,58.183 L74.721,59.178 L74.903,60.142 L74.988,61.070 L74.977,61.959 L74.868,62.806 L74.663,63.606 L74.361,64.358 L73.960,65.064 L73.464,65.717 L72.871,66.319 L72.181,66.871 L71.392,67.376 L70.506,67.836 L69.519,68.255 L68.430,68.640 L67.235,68.999 L65.923,69.349 L65.528,69.438"/>
<path d="M68.070,69.037 L65.731,69.200 L64.273,69.334 L62.217,69.595 L60.930,69.828 L60.306,69.955 L59.700,70.099 L58.535,70.434 L57.971,70.618 L57.425,70.819 L56.894,71.038 L56.381,71.274 L55.394,71.787 L54.924,72.067 L54.469,72.365 L54.031,72.680 L53.609,73.013 L53.204,73.363 L52.815,73.730 L52.442,74.114 L52.086,74.515 L51.746,74.933 L51.423,75.368 L51.116,75.820 L50.825,76.288 L50.552,76.774 L50.295,77.276 L50.055,77.794 L49.832,78.330 L49.627,78.882 L49.438,79.450 L49.098,80.628 L48.952,81.240 L48.823,81.870 L48.712,82.517 L48.520,83.851 L48.447,84.542 L48.339,85.973 L48.301,86.712 L48.262,88.244 L48.269,90.679 L48.382,95.073 L48.404,96.599 L48.393,98.023 L48.342,99.349 L48.246,100.578 L48.099,101.713 L47.898,102.755 L47.637,103.707 L47.315,104.567 L46.934,105.333 L46.489,106.007 L45.982,106.589 L45.415,107.074 L44.789,107.463 L44.106,107.756 L43.367,107.951 L42.577,108.049 L41.738,108.047 L40.855,107.944 L39.934,107.740 L38.975,107.437 L38.793,107.429 L38.685,107.357 L37.749,106.711 L36.641,105.870 L35.537,104.932 L34.642,104.108 L33.345,102.800 L32.896,102.309 L32.272,101.605 L31.220,100.333 L30.200,98.977 L29.875,98.517 L29.215,97.547 L28.588,96.565 L28.269,96.047 L27.369,94.481 L26.421,92.635 L25.738,91.150 L25.536,90.681 L25.015,89.397 L24.362,87.591 L23.784,85.734 L23.288,83.830 L23.137,83.153 L22.791,81.373 L22.533,79.640 L22.351,77.859 L22.267,76.331 L22.245,74.756 L22.283,73.232 L22.406,71.490 L22.542,70.343 L22.695,69.259 L22.997,67.654 L23.150,66.946 L23.618,65.154 L23.804,64.522 L24.377,62.827 L24.794,61.720 L25.246,60.656 L26.019,58.978 L26.712,57.649 L27.237,56.705 L28.158,55.159 L28.903,54.017 L29.488,53.166 L30.086,52.333 L30.697,51.517 L31.623,50.345 L32.613,49.160 L33.282,48.403 L33.966,47.658 L34.668,46.926 L35.387,46.206 L36.132,45.505 L36.899,44.819 L37.689,44.147 L38.502,43.486 L39.346,42.850 L40.222,42.234 L41.296,41.524 L42.069,41.066 L43.520,40.271 L43.519,40.404 L44.847,40.023 L46.107,39.720 L47.416,39.478 L48.776,39.300 L50.182,39.185 L51.641,39.146 L53.152,39.192 L53.765,39.232 L54.712,39.324 L55.639,39.441 L56.321,39.550 L57.463,39.764 L57.978,39.877 L59.237,40.191 L60.959,40.715 L62.627,41.328 L64.237,42.020 L65.020,42.395 L65.789,42.785 L67.280,43.615 L68.704,44.499 L70.061,45.445 L71.346,46.432 L72.560,47.453 L73.693,48.511 L74.748,49.590 L75.723,50.687 L76.612,51.797 L77.417,52.909 L78.134,54.022 L78.762,55.126 L79.231,56.068 L79.747,57.287 L80.102,58.332 L80.366,59.344 L80.538,60.322 L80.615,61.261 L80.600,62.154 L80.523,62.766 L80.494,62.998 L80.296,63.789 L80.008,64.524 L79.629,65.202 L79.159,65.822 L78.602,66.380 L77.957,66.877 L77.223,67.315 L76.404,67.692 L75.498,68.012 L74.505,68.278 L73.424,68.497 L72.489,68.635"/>
<path d="M74.591,68.597 L72.940,68.475 L68.697,68.095 L67.202,67.993 L65.772,67.931 L64.402,67.920 L63.736,67.927 L63.087,67.954 L61.825,68.045 L61.216,68.115 L60.038,68.303 L59.467,68.418 L58.913,68.553 L58.374,68.708 L57.851,68.882 L57.338,69.067 L56.840,69.271 L56.359,69.496 L55.895,69.741 L55.448,70.006 L55.018,70.290 L54.606,70.594 L54.210,70.918 L53.833,71.261 L53.472,71.621 L53.128,72.001 L52.804,72.400 L52.498,72.818 L52.211,73.255 L51.942,73.708 L51.691,74.180 L51.458,74.669 L51.245,75.176 L51.051,75.700 L50.875,76.241 L50.720,76.800 L50.583,77.374 L50.359,78.566 L50.270,79.183 L50.201,79.816 L50.151,80.465 L50.090,81.799 L50.097,83.192 L50.152,84.636 L50.340,86.913 L50.524,88.507 L50.750,90.170 L51.695,96.423 L51.881,97.880 L52.026,99.254 L52.120,100.548 L52.159,101.764 L52.138,102.901 L52.055,103.959 L51.907,104.935 L51.689,105.834 L51.406,106.647 L51.052,107.378 L50.629,108.026 L50.197,108.520 L50.137,108.588 L49.581,109.060 L48.960,109.444 L48.276,109.737 L47.533,109.938 L46.736,110.044 L45.886,110.056 L44.987,109.973 L44.043,109.797"/>
<path d="M43.533,109.662 L43.053,109.400 L41.916,108.695 L40.769,107.903 L40.505,107.705 L39.621,107.019 L38.472,106.055 L37.336,105.002 L36.752,104.424 L36.211,103.871 L35.105,102.664 L34.030,101.377 L33.544,100.760 L32.984,100.022 L32.140,98.843 L31.007,97.116 L30.092,95.568 L29.737,94.927 L29.228,93.967 L28.727,92.959 L28.422,92.316 L27.840,91.001 L27.006,88.882 L26.406,87.106 L25.885,85.297 L25.446,83.458 L25.094,81.595 L24.835,79.710 L24.672,77.807 L24.610,75.890 L24.652,73.962 L24.805,72.022 L25.082,70.061 L25.481,68.089 L26.028,66.077 L26.734,64.021 L27.391,62.429 L27.632,61.883 L28.336,60.452 L28.826,59.512 L29.344,58.612 L30.335,56.970 L31.491,55.252 L32.043,54.463 L32.996,53.149 L33.736,52.183 L34.894,50.720 L36.672,48.572 L37.461,47.657 L38.540,46.472 L39.854,45.094 L40.534,44.407 L41.974,43.077 L42.796,42.356 L43.514,41.782 L44.719,40.865 L45.181,40.547 L46.533,39.667 L46.998,39.397 L48.292,38.692 L48.985,38.363 L50.077,37.877 L50.483,37.898 L51.481,37.721 L52.451,37.600 L53.359,37.514 L53.850,37.484 L55.212,37.438 L57.033,37.494 L58.826,37.666 L59.977,37.839 L60.590,37.947 L61.635,38.167 L62.323,38.330 L63.340,38.605 L64.022,38.808 L65.682,39.375 L66.868,39.842 L67.302,40.024 L68.680,40.655 L70.402,41.548 L71.873,42.414 L73.288,43.336 L74.645,44.309 L75.939,45.327 L77.162,46.389 L78.318,47.481 L79.402,48.598 L80.407,49.740 L81.339,50.890 L82.184,52.054 L82.952,53.212 L83.631,54.371 L84.229,55.512 L84.735,56.641 L85.157,57.743 L85.490,58.815 L85.732,59.855 L85.886,60.854 L85.953,61.805 L85.931,62.707 L85.820,63.556 L85.622,64.348 L85.367,65.005 L84.970,65.743 L84.517,66.343 L83.980,66.875 L83.364,67.337 L82.668,67.728 L81.891,68.053 L81.039,68.307 L80.109,68.496 L79.103,68.622 L78.363,68.666"/>
<path d="M79.230,68.675 L78.647,68.566 L77.313,68.270 L75.914,67.942 L72.178,67.025 L70.628,66.669 L68.409,66.214 L66.991,65.967 L65.618,65.776 L64.947,65.700 L63.638,65.596 L62.999,65.566 L61.757,65.563 L61.151,65.581 L60.558,65.623 L59.412,65.766 L58.855,65.862 L58.315,65.982 L57.791,66.126 L56.789,66.478 L56.309,66.683 L55.848,66.911 L55.406,67.165 L54.984,67.442 L54.581,67.743 L54.199,68.067 L53.837,68.414 L53.497,68.784 L53.178,69.176 L52.881,69.591 L52.606,70.026 L52.353,70.483 L52.123,70.961 L51.915,71.459 L51.731,71.976 L51.569,72.513 L51.432,73.068 L51.313,73.638 L51.210,74.221 L51.130,74.820 L51.073,75.435 L51.038,76.067 L51.015,77.362 L51.031,78.028 L51.121,79.399 L51.270,80.810 L51.480,82.264 L51.902,84.527 L52.249,86.092 L52.853,88.533 L53.309,90.234 L54.460,94.330 L55.261,97.332 L55.597,98.733 L55.883,100.069 L56.112,101.339 L56.280,102.543 L56.382,103.680 L56.414,104.753 L56.377,105.753 L56.264,106.686 L56.080,107.543 L55.819,108.329 L55.482,109.040 L55.071,109.673 L54.647,110.157 L54.588,110.225 L54.033,110.695 L53.410,111.081 L52.721,111.380 L51.969,111.592 L51.157,111.716 L50.288,111.752 L49.370,111.693 L48.405,111.542 L48.094,111.468"/>
<path d="M49.025,111.792 L48.644,111.628 L47.485,111.059 L46.309,110.403 L45.122,109.660 L44.808,109.446 L43.931,108.829 L42.737,107.919 L41.555,106.923 L40.987,106.411 L40.383,105.850 L39.232,104.712 L38.099,103.483 L36.998,102.195 L35.931,100.845 L34.702,99.135 L33.927,97.961 L33.442,97.183 L32.998,96.442 L32.122,94.877 L31.290,93.238 L30.408,91.270 L29.877,89.947 L29.646,89.323 L29.269,88.245 L28.736,86.522 L28.282,84.784 L27.912,83.036 L27.627,81.283 L27.432,79.530 L27.362,78.500 L27.327,77.782 L27.316,76.044 L27.401,74.319 L27.582,72.614 L27.866,70.928 L28.255,69.261 L28.746,67.623 L29.349,66.007 L30.067,64.411 L30.911,62.825 L31.891,61.239 L33.036,59.618 L34.399,57.898 L36.133,55.894 L36.920,55.033 L38.030,53.779 L39.623,51.893 L40.652,50.614 L41.668,49.304 L42.679,47.949 L43.371,46.990 L44.992,44.870 L46.393,43.188 L47.726,41.761 L49.043,40.521 L50.373,39.434 L51.723,38.486 L53.102,37.665 L54.510,36.967 L55.952,36.381 L57.266,35.957 L56.864,36.217 L57.533,36.166 L58.569,36.113 L60.477,36.133 L61.965,36.243 L63.643,36.466 L65.318,36.791 L66.970,37.211 L68.598,37.722 L70.200,38.318 L71.772,38.995 L73.308,39.747 L74.806,40.568 L76.261,41.453 L77.894,42.564 L79.016,43.401 L79.721,43.961 L80.312,44.448 L81.517,45.504 L82.720,46.663 L83.825,47.818 L84.933,49.081 L85.820,50.193 L86.508,51.119 L86.707,51.397 L87.514,52.609 L88.242,53.817 L88.887,55.017 L89.449,56.202 L89.926,57.367 L90.275,58.369 L90.625,59.610 L90.846,60.676 L90.943,61.397 L90.981,61.697 L91.028,62.673 L90.992,63.593 L90.872,64.453 L90.669,65.251 L90.383,65.983 L90.017,66.646 L89.962,66.719 L89.571,67.237 L89.047,67.754 L88.447,68.195 L87.774,68.558 L87.031,68.842 L86.214,69.053 L85.330,69.184 L84.377,69.246 L83.359,69.234"/>
<path d="M83.886,69.232 L82.647,68.820 L81.356,68.359 L80.016,67.853 L74.658,65.732 L73.105,65.137 L71.593,64.580 L70.116,64.067 L68.669,63.599 L66.548,62.988 L65.164,62.649 L64.481,62.501 L63.133,62.250 L62.470,62.152 L61.163,62.003 L60.523,61.960 L59.270,61.933 L58.659,61.952 L58.064,62.002 L57.480,62.071 L56.906,62.161 L56.352,62.283 L55.819,62.438 L55.308,62.625 L54.813,62.836 L54.339,63.076 L53.892,63.350 L53.472,63.658 L53.082,63.999 L52.721,64.373 L52.390,64.780 L52.091,65.218 L51.824,65.686 L51.588,66.183 L51.386,66.708 L51.217,67.260 L51.074,67.832 L50.954,68.421 L50.866,69.031 L50.807,69.662 L50.771,70.972 L50.781,71.642 L50.819,72.327 L50.957,73.727 L51.053,74.439 L51.303,75.888 L51.450,76.620 L51.795,78.106 L51.987,78.856 L52.413,80.374 L53.147,82.692 L53.693,84.269 L54.282,85.874 L54.912,87.515 L55.580,89.199 L57.945,95.000 L58.515,96.454 L59.041,97.856 L59.518,99.205 L59.939,100.503 L60.299,101.748 L60.592,102.939 L60.816,104.074 L60.966,105.153 L61.038,106.175 L61.034,107.136 L60.949,108.034 L60.782,108.870 L60.535,109.639 L60.208,110.338 L59.801,110.965 L59.318,111.518 L58.759,111.993 L58.127,112.389 L57.426,112.704 L56.656,112.938 L55.825,113.085 L54.937,113.144 L53.993,113.117 L53.001,112.999 L53.105,112.876 L52.134,112.452 L50.917,111.846 L49.688,111.154 L48.454,110.376 L47.217,109.520 L45.988,108.580 L45.540,108.214 L44.770,107.565 L43.726,106.628 L42.387,105.319 L41.236,104.093 L40.116,102.807 L38.892,101.274 L38.001,100.062 L37.509,99.354 L37.013,98.614 L36.243,97.398 L35.198,95.594 L34.384,94.029 L33.634,92.437 L32.952,90.824 L32.343,89.196 L31.808,87.559 L31.293,85.659 L30.981,84.270 L30.893,83.811 L30.689,82.634 L30.604,82.018 L30.482,81.012 L30.420,80.284 L30.360,79.410 L30.336,78.616 L30.325,77.834 L30.376,76.288 L30.515,74.780 L30.741,73.314 L31.053,71.897 L31.450,70.533 L31.930,69.230 L32.492,67.991 L33.133,66.822 L33.852,65.724 L34.644,64.709 L35.501,63.781 L36.419,62.948 L37.394,62.215 L38.418,61.586 L39.476,61.078 L40.555,60.706 L41.637,60.486 L42.051,60.480 L42.700,60.442 L43.712,60.608 L44.650,61.007 L45.488,61.662 L46.224,62.573 L46.884,63.697 L47.025,64.031 L47.487,65.004 L48.071,66.441 L48.323,67.149 L48.652,67.977 L49.023,69.010 L49.251,69.577 L49.696,70.789 L50.701,73.358 L51.734,75.850 L52.815,78.293 L53.941,80.706 L54.724,82.310 L55.534,83.916 L57.235,87.167 L60.109,92.445 L61.645,95.309 L62.358,96.684 L63.022,98.020 L63.634,99.317 L64.188,100.573 L64.677,101.786 L65.098,102.956 L65.443,104.082 L65.710,105.165 L65.898,106.197 L66.001,107.182 L66.018,108.116 L65.951,108.993 L65.797,109.813 L65.556,110.574 L65.229,111.272 L64.818,111.905 L64.326,112.468 L63.755,112.958 L63.108,113.374 L62.386,113.714 L61.596,113.972 L60.741,114.149 L59.823,114.245 L58.853,114.249 L58.499,114.223"/>
<path d="M59.451,114.433 L58.199,114.042 L56.996,113.583 L55.736,113.029 L54.224,112.260 L53.185,111.668 L52.269,111.101 L51.903,110.866 L50.627,109.985 L49.363,109.027 L48.501,108.325 L48.112,107.998 L46.882,106.901 L45.683,105.734 L44.513,104.509 L43.404,103.259 L42.293,101.893 L41.251,100.511 L40.518,99.468 L39.324,97.630 L38.452,96.135 L38.109,95.507 L37.642,94.618 L37.095,93.502 L36.898,93.082 L36.223,91.534 L35.625,89.974 L35.102,88.414 L34.849,87.556 L34.656,86.860 L34.360,85.639 L34.000,83.796 L33.798,82.293 L33.767,81.964 L33.677,80.821 L33.655,80.222 L33.637,79.388 L33.680,77.998 L33.803,76.659 L33.992,75.455 L34.288,74.154 L34.647,72.999 L34.760,72.710 L35.078,71.920 L35.579,70.923 L36.145,70.015 L36.678,69.323 L36.771,69.202 L37.455,68.489 L38.190,67.881 L38.968,67.389 L39.779,67.022 L40.626,66.774 L41.490,66.666 L42.375,66.690 L43.265,66.859 L44.157,67.171 L45.048,67.627 L45.935,68.224 L46.815,68.956 L47.693,69.813 L48.569,70.785 L49.446,71.860 L50.328,73.026 L51.218,74.269 L52.123,75.572 L57.451,83.527 L60.172,87.492 L63.738,92.608 L65.554,95.275 L66.404,96.566 L67.206,97.830 L67.954,99.065 L68.642,100.268 L69.264,101.440 L69.813,102.580 L70.283,103.688 L70.673,104.760 L70.976,105.798 L71.193,106.795 L71.317,107.753 L71.350,108.668 L71.290,109.537 L71.137,110.355 L70.894,111.119 L70.559,111.827 L70.302,112.220 L70.136,112.475 L69.624,113.062 L69.034,113.576 L68.362,114.021 L67.613,114.394 L66.795,114.688 L65.996,114.885 L64.959,115.038 L63.950,115.091"/>
<path d="M64.960,115.253 L64.621,115.184 L63.360,114.859 L62.074,114.447 L60.767,113.951 L59.448,113.371 L58.123,112.705 L56.794,111.961 L55.382,111.084 L54.157,110.240 L53.505,109.761 L52.859,109.270 L51.579,108.234 L50.331,107.128 L49.901,106.726 L49.113,105.963 L47.930,104.743 L46.600,103.247 L45.699,102.151 L45.096,101.376 L44.656,100.791 L43.667,99.398 L42.742,97.970 L42.430,97.458 L41.878,96.518 L41.286,95.442 L41.078,95.051 L40.274,93.410 L39.693,92.082 L39.408,91.373 L39.110,90.595 L38.602,89.117 L38.100,87.358 L37.826,86.201 L37.557,84.780 L37.366,83.394 L37.260,82.043 L37.233,80.738 L37.284,79.488 L37.412,78.296 L37.620,77.165 L37.900,76.108 L38.240,75.156 L38.673,74.229 L39.159,73.419 L39.705,72.705 L40.310,72.087 L40.966,71.578 L41.672,71.173 L42.420,70.884 L43.205,70.713 L44.027,70.657 L44.877,70.722 L45.752,70.910 L46.648,71.218 L47.563,71.644 L48.497,72.182 L49.444,72.833 L50.409,73.583 L51.388,74.428 L52.382,75.359 L53.392,76.368 L54.418,77.444 L56.522,79.755 L58.688,82.222 L62.731,86.881 L67.588,92.442 L69.680,94.894 L70.670,96.092 L71.613,97.270 L72.504,98.425 L73.333,99.560 L74.093,100.675 L74.778,101.767 L75.383,102.838 L75.900,103.890 L76.329,104.914 L76.662,105.916 L76.897,106.890 L77.033,107.833 L77.071,108.742 L77.009,109.613 L76.848,110.442 L76.588,111.225 L76.231,111.961 L75.785,112.637 L75.247,113.257 L74.622,113.813 L73.916,114.301 L73.130,114.719 L72.271,115.063 L71.950,115.157 L71.345,115.328 L70.351,115.517 L69.303,115.618"/>
<path d="M70.708,115.731 L70.031,115.640 L68.718,115.379 L67.379,115.032 L66.020,114.602 L64.649,114.084 L63.272,113.481 L61.893,112.800 L60.571,112.074 L59.154,111.204 L57.806,110.295 L56.829,109.583 L56.478,109.319 L55.177,108.277 L53.911,107.172 L53.247,106.556 L52.680,106.012 L51.488,104.804 L50.347,103.544 L49.944,103.073 L49.256,102.244 L48.433,101.194 L47.241,99.547 L47.034,99.241 L46.327,98.157 L45.760,97.230 L45.477,96.751 L44.695,95.334 L43.989,93.908 L43.354,92.486 L42.793,91.072 L42.314,89.667 L41.912,88.286 L41.587,86.933 L41.347,85.608 L41.184,84.326 L41.101,83.091 L41.100,81.905 L41.157,80.999 L41.173,80.780 L41.326,79.717 L41.553,78.726 L41.852,77.810 L42.221,76.975 L42.657,76.226 L43.157,75.569 L43.719,75.005 L44.336,74.543 L45.007,74.182 L45.729,73.925 L46.496,73.776 L47.305,73.735 L48.154,73.803 L49.037,73.980 L49.954,74.262 L50.904,74.646 L51.974,75.186"/>
<path d="M50.535,76.500 L50.172,76.946 L49.825,77.408 L49.492,77.886 L49.175,78.379 L48.872,78.889 L48.585,79.414 L48.313,79.956 L48.056,80.514 L47.583,81.676 L47.160,82.899 L46.970,83.536 L46.796,84.191 L46.473,85.545 L46.330,86.248 L46.075,87.708 L45.958,88.464 L45.749,90.037 L45.225,94.808 L45.033,96.307 L44.824,97.676 L44.581,98.930 L44.299,100.072 L43.972,101.105 L43.594,102.033 L43.168,102.854 L42.688,103.573 L42.154,104.187 L41.564,104.700 L40.925,105.105 L40.234,105.407 L39.493,105.605 L38.706,105.699 L37.875,105.687 L37.004,105.571 L36.097,105.349 L35.159,105.020 L34.520,104.731"/>
<path d="M54.583,76.916 L53.797,76.646 L52.851,76.400 L51.945,76.251 L51.085,76.197 L50.272,76.242 L49.508,76.388 L48.796,76.633 L48.139,76.976 L47.540,77.416 L47.006,77.946 L46.535,78.568 L46.130,79.278 L45.982,79.626 L45.796,80.070 L45.534,80.939 L45.345,81.885 L45.236,82.894 L45.201,83.971 L45.249,85.100 L45.374,86.284 L45.582,87.510 L45.726,88.165 L45.869,88.776 L46.237,90.077 L46.687,91.400 L47.213,92.747 L47.819,94.104 L48.090,94.657 L48.501,95.469 L49.215,96.769 L50.084,98.195 L50.492,98.819 L50.981,99.542 L51.942,100.875 L52.970,102.177 L53.410,102.704 L54.056,103.451 L55.023,104.510 L56.388,105.888 L56.719,106.202 L57.628,107.036 L58.481,107.777 L58.909,108.135 L60.226,109.178 L61.580,110.154 L62.960,111.066 L64.006,111.704 L64.361,111.911 L65.778,112.682 L67.210,113.372 L68.645,113.983 L70.080,114.514 L71.396,114.928 L72.927,115.319 L74.329,115.588 L74.882,115.667 L75.708,115.769 L76.539,115.833"/>
<path d="M74.891,115.813 L76.034,115.636 L77.081,115.382 L78.062,115.051 L78.974,114.642 L79.160,114.536 L79.814,114.157 L80.571,113.607 L81.245,112.990 L81.830,112.312 L82.320,111.582 L82.716,110.799 L83.008,109.975 L83.198,109.111 L83.281,108.214 L83.255,107.292 L83.118,106.348 L82.873,105.386 L82.520,104.410 L82.060,103.424 L81.495,102.432 L80.836,101.427 L80.082,100.418 L79.243,99.401 L78.327,98.374 L77.342,97.334 L76.296,96.282 L75.198,95.218 L72.878,93.046 L66.096,86.850 L63.014,84.013 L60.613,81.833 L58.290,79.792 L57.162,78.842 L56.056,77.951 L55.660,77.655"/>
<path d="M62.098,79.818 L61.684,79.756 L60.713,79.687 L59.802,79.696 L58.950,79.790 L58.160,79.967 L57.436,80.227 L56.777,80.572 L56.187,81.001 L55.668,81.512 L55.222,82.104 L54.850,82.773 L54.555,83.517 L54.338,84.332 L54.203,85.211 L54.148,86.154 L54.173,87.156 L54.285,88.206 L54.479,89.306 L54.756,90.447 L55.118,91.622 L55.562,92.828 L56.090,94.055 L56.698,95.302 L57.386,96.557 L58.154,97.817 L58.995,99.078 L59.914,100.325 L60.902,101.562 L61.958,102.776 L63.081,103.961 L64.264,105.117 L65.504,106.232 L66.802,107.300 L68.147,108.319 L69.341,109.154 L71.190,110.318 L72.437,111.021 L73.937,111.786 L75.462,112.477 L77.009,113.088 L78.572,113.617 L80.147,114.058 L81.730,114.406 L83.313,114.662 L85.116,114.834 L86.465,114.882 L88.106,114.836 L87.851,114.737 L88.483,114.546 L89.631,114.101 L90.723,113.580 L90.886,113.498 L92.001,112.841 L92.691,112.355 L93.050,112.098 L94.030,111.273 L94.935,110.372 L95.761,109.398 L96.507,108.353 L97.166,107.246 L97.730,106.088 L98.192,104.889 L98.543,103.663 L98.779,102.418 L98.877,101.186 L98.818,99.995 L98.584,98.872 L98.142,97.864 L97.484,96.986 L96.617,96.237 L95.556,95.607 L94.696,95.223 L94.344,95.047 L93.715,94.819 L93.015,94.527 L91.907,94.140 L91.602,94.016 L91.055,93.840 L90.125,93.494 L89.404,93.251 L87.806,92.662 L86.245,92.062 L84.710,91.442 L83.195,90.798 L81.693,90.128 L80.198,89.431 L77.958,88.332 L75.704,87.172 L72.637,85.518 L68.866,83.421 L66.187,81.961 L64.903,81.290 L63.659,80.666 L62.455,80.098"/>
<path d="M65.412,80.559 L66.118,80.766 L67.359,81.177 L68.649,81.640 L71.378,82.688 L74.944,84.109 L76.509,84.714 L78.031,85.279 L80.246,86.047 L81.686,86.505 L83.101,86.911 L83.798,87.093 L85.177,87.421 L86.530,87.684 L87.198,87.795 L88.510,87.958 L89.156,88.014 L90.416,88.057 L91.035,88.053 L91.638,88.019 L92.807,87.879 L93.371,87.773 L93.914,87.635 L94.436,87.464 L94.936,87.261 L95.423,87.039 L95.884,86.782 L96.317,86.491 L96.723,86.167 L97.098,85.809 L97.444,85.418 L97.759,84.996 L98.043,84.543 L98.294,84.060 L98.513,83.549 L98.699,83.010 L98.851,82.445 L98.986,81.868 L99.090,81.268 L99.164,80.648 L99.207,80.007 L99.224,78.687 L99.200,78.010 L99.148,77.317 L98.996,75.911 L98.887,75.193 L98.624,73.740 L98.466,73.003 L98.110,71.513 L97.694,70.000 L97.470,69.237 L96.982,67.691 L96.446,66.121 L95.564,63.712 L94.925,62.061 L94.248,60.365 L92.665,56.504 L91.488,53.546 L90.962,52.145 L90.485,50.794 L90.065,49.496 L89.705,48.252 L89.411,47.061 L89.188,45.925 L89.039,44.845 L88.965,43.825 L88.971,42.863 L89.056,41.963 L89.221,41.129 L89.468,40.362 L89.795,39.663 L90.201,39.036 L90.685,38.483 L91.244,38.007 L91.878,37.609 L92.580,37.292 L93.347,37.062 L94.178,36.915 L95.069,36.852 L96.010,36.883 L96.603,36.953"/>
<path d="M97.536,37.396 L97.871,37.546 L99.087,38.153 L99.588,38.430 L100.315,38.847 L101.552,39.620 L102.785,40.482 L103.519,41.034 L104.015,41.419 L105.236,42.432 L106.436,43.523 L107.140,44.204 L107.616,44.681 L108.770,45.903 L109.886,47.193 L110.367,47.781 L110.966,48.539 L111.814,49.673 L112.992,51.384 L113.926,52.878 L114.338,53.584 L114.803,54.409 L115.415,55.568 L116.372,57.560 L117.188,59.527 L117.659,60.806 L118.192,62.446 L118.647,64.090 L118.921,65.264 L119.022,65.731 L119.268,67.086 L119.522,68.986 L119.645,70.587 L119.681,72.164 L119.629,73.710 L119.486,75.245 L119.264,76.684 L118.973,78.008 L118.553,79.467 L118.071,80.773 L117.703,81.590 L117.507,82.014 L116.865,83.185 L116.147,84.280 L115.964,84.516 L115.359,85.292 L114.500,86.221 L113.578,87.059 L112.602,87.794 L111.582,88.419 L110.526,88.923 L109.444,89.299 L108.360,89.521 L107.299,89.562 L106.282,89.403 L105.349,89.000 L104.511,88.343 L103.769,87.441 L103.113,86.310 L102.696,85.383 L102.508,85.006 L102.248,84.322 L101.927,83.566 L101.483,82.361 L101.345,82.031 L101.140,81.435 L100.749,80.426 L100.468,79.642 L99.802,77.907 L99.128,76.215 L98.439,74.554 L97.731,72.917 L97.002,71.297 L96.249,69.688 L95.471,68.084 L94.668,66.479 L93.839,64.866 L92.095,61.584 L89.110,56.104 L87.647,53.315 L86.981,51.980 L86.368,50.684 L85.815,49.428 L85.326,48.214 L84.907,47.042 L84.562,45.916 L84.293,44.835 L84.107,43.800 L84.004,42.816 L83.985,41.885 L84.053,41.006 L84.208,40.185 L84.449,39.424 L84.775,38.726 L85.185,38.095 L85.677,37.532 L86.249,37.040 L86.898,36.623 L87.618,36.286 L88.408,36.026 L89.264,35.848 L90.179,35.757 L91.154,35.746 L91.849,35.802"/>
<path d="M90.188,35.474 L90.555,35.564 L91.768,35.948 L93.010,36.414 L94.268,36.970 L94.783,37.222 L95.540,37.609 L96.822,38.328 L98.100,39.134 L98.690,39.534 L99.376,40.015 L100.644,40.969 L101.892,42.002 L102.398,42.447 L103.120,43.101 L104.323,44.263 L105.800,45.832 L106.621,46.773 L107.355,47.660 L107.711,48.106 L108.755,49.486 L109.743,50.912 L110.129,51.504 L110.677,52.373 L111.336,53.486 L111.552,53.864 L112.417,55.486 L113.105,56.918 L113.361,57.493 L113.777,58.469 L114.377,60.027 L114.903,61.584 L115.349,63.139 L115.714,64.683 L116.000,66.209 L116.131,67.133 L116.204,67.709 L116.308,68.909 L116.368,70.610 L116.324,72.002 L116.304,72.246 L116.199,73.343 L115.994,74.628 L115.712,75.850 L115.355,77.003 L114.993,77.912 L114.925,78.080 L114.425,79.075 L113.857,79.986 L113.714,80.173 L113.228,80.802 L112.545,81.516 L111.812,82.120 L111.035,82.612 L110.219,82.985 L109.377,83.226 L108.508,83.340 L107.628,83.311 L106.737,83.143 L105.844,82.831 L104.954,82.374 L104.067,81.778 L103.184,81.049 L102.308,80.190 L101.434,79.216 L100.557,78.140 L99.674,76.976 L98.782,75.735 L97.880,74.428 L96.962,73.074 L93.892,68.464 L91.738,65.277 L89.550,62.102 L86.265,57.391 L84.450,54.724 L83.601,53.431 L82.798,52.169 L82.049,50.935 L81.361,49.731 L80.741,48.559 L80.193,47.417 L79.721,46.311 L79.332,45.237 L79.028,44.201 L78.814,43.201 L78.688,42.244 L78.655,41.330 L78.715,40.462 L78.867,39.644 L79.112,38.878 L79.448,38.168 L79.870,37.522 L80.378,36.939 L80.971,36.422 L81.643,35.976 L82.390,35.605 L83.211,35.308 L84.096,35.095 L85.048,34.958 L86.053,34.910 L86.335,34.917"/>
<path d="M84.872,34.715 L85.383,34.815 L86.644,35.140 L87.933,35.549 L89.237,36.048 L89.806,36.293 L90.555,36.630 L91.884,37.291 L93.210,38.037 L93.660,38.310 L94.533,38.861 L95.849,39.757 L97.417,40.942 L98.422,41.768 L99.220,42.463 L99.673,42.871 L100.893,44.033 L102.073,45.257 L102.606,45.842 L103.212,46.530 L104.165,47.671 L105.348,49.207 L106.334,50.605 L106.948,51.537 L107.262,52.030 L108.128,53.478 L108.925,54.950 L109.653,56.431 L110.312,57.917 L110.895,59.403 L111.400,60.885 L111.828,62.352 L112.138,63.616 L112.447,65.219 L112.635,66.609 L112.704,67.417 L112.743,67.958 L112.773,69.259 L112.719,70.513 L112.675,70.941 L112.588,71.707 L112.383,72.834 L112.103,73.892 L112.026,74.110 L111.750,74.875 L111.330,75.772 L110.844,76.581 L110.649,76.836 L110.296,77.298 L109.693,77.912 L109.035,78.426 L108.331,78.827 L107.582,79.118 L106.794,79.292 L106.256,79.327 L105.974,79.346 L105.125,79.279 L104.250,79.091 L103.353,78.784 L102.437,78.359 L101.506,77.817 L100.556,77.171 L99.593,76.419 L98.616,75.572 L97.622,74.640 L96.611,73.632 L95.584,72.558 L94.541,71.425 L93.482,70.244 L91.315,67.779 L87.590,63.482 L82.417,57.556 L80.325,55.103 L79.334,53.906 L78.390,52.730 L77.500,51.574 L76.672,50.439 L75.911,49.324 L75.226,48.231 L74.623,47.157 L74.104,46.109 L73.678,45.082 L73.344,44.081 L73.108,43.108 L72.971,42.166 L72.934,41.257 L72.996,40.385 L73.159,39.554 L73.418,38.771 L73.772,38.039 L74.221,37.359 L74.437,37.111 L74.759,36.741 L75.383,36.185 L76.090,35.696 L76.875,35.279 L77.733,34.936 L78.662,34.668 L79.652,34.484 L80.704,34.378 L81.308,34.368"/>
<path d="M79.251,34.257 L79.972,34.360 L81.023,34.562 L81.288,34.618 L82.627,34.964 L83.984,35.399 L84.701,35.662 L85.355,35.916 L86.585,36.446 L88.112,37.197 L88.478,37.394 L89.486,37.959 L90.369,38.492 L90.850,38.794 L92.201,39.700 L93.525,40.681 L94.825,41.724 L95.878,42.632 L97.325,43.986 L98.513,45.199 L99.261,46.011 L99.657,46.455 L100.750,47.752 L101.784,49.089 L102.279,49.768 L102.762,50.454 L103.621,51.748 L104.527,53.248 L105.306,54.668 L106.016,56.089 L106.650,57.513 L107.208,58.931 L107.690,60.331 L108.092,61.713 L108.414,63.070 L108.657,64.390 L108.819,65.674 L108.900,66.911 L108.906,68.093 L108.828,69.222 L108.677,70.283 L108.450,71.275 L108.151,72.191 L107.782,73.025 L107.584,73.365 L107.345,73.774 L106.845,74.433 L106.285,74.993 L105.666,75.459 L104.994,75.820 L104.274,76.075 L103.508,76.223 L102.699,76.264 L101.850,76.197 L100.965,76.022 L100.467,75.869"/>
<path d="M99.648,73.274 L100.004,72.820 L100.344,72.350 L100.669,71.865 L100.979,71.363 L101.274,70.846 L101.553,70.312 L101.818,69.762 L102.067,69.195 L102.529,68.020 L102.938,66.780 L103.120,66.134 L103.451,64.794 L103.602,64.101 L103.738,63.388 L103.987,61.911 L104.302,59.552 L104.779,55.191 L104.966,53.697 L105.179,52.324 L105.423,51.069 L105.706,49.927 L106.032,48.895 L106.407,47.969 L106.835,47.146 L107.315,46.428 L107.850,45.813 L108.436,45.303 L109.077,44.896 L109.770,44.592 L110.511,44.393 L111.298,44.299 L112.129,44.312 L112.998,44.430 L113.904,44.654 L114.842,44.982 L116.180,45.572 L117.242,46.469 L117.895,47.071 L118.304,47.458 L119.356,48.541 L120.393,49.717 L121.413,50.977 L122.402,52.327 L122.703,52.766 L123.358,53.761 L123.956,54.731 L124.276,55.273 L125.064,56.701 L126.029,58.663 L126.726,60.271 L127.419,62.082 L128.039,63.961 L128.170,64.406 L128.579,65.907 L129.032,67.916 L129.359,69.812 L129.571,71.520 L129.706,73.180 L129.771,74.791 L129.768,76.353 L129.697,77.862 L129.576,79.326 L129.395,80.739 L129.266,81.573 L129.171,82.107 L128.900,83.429 L128.707,84.256 L128.239,85.945 L127.846,87.191 L127.440,88.301 L126.996,89.424 L126.528,90.517 L126.026,91.569 L125.502,92.593 L124.957,93.589 L124.392,94.559 L123.806,95.504 L123.195,96.419 L122.564,97.311 L121.913,98.180 L121.243,99.028 L120.552,99.855 L119.840,100.662 L119.106,101.449 L118.350,102.215 L117.566,102.956 L116.757,103.676 L115.923,104.375 L115.063,105.054 L114.139,105.736"/>
<path d="M113.414,106.080 L112.882,106.332 L111.761,106.814 L110.605,107.260 L109.398,107.645 L108.154,107.992 L106.857,108.268 L105.909,108.435 L105.518,108.492 L104.129,108.646 L103.719,108.678 L102.690,108.725 L101.625,108.739 L101.204,108.731 L99.669,108.653 L98.081,108.472 L97.681,108.414 L96.446,108.193 L95.819,108.062 L94.764,107.805 L94.027,107.603 L93.038,107.297 L92.304,107.048 L91.271,106.659 L90.651,106.407 L89.467,105.879 L89.070,105.690 L87.560,104.905 L86.129,104.055 L85.771,103.824 L84.776,103.153 L83.896,102.510 L83.499,102.209 L82.306,101.226 L81.198,100.210 L80.172,99.177 L79.240,98.120 L78.312,96.948 L77.641,95.990 L76.979,94.927 L76.411,93.874 L75.941,92.832 L75.565,91.812 L75.285,90.820 L75.101,89.857 L75.015,88.930 L75.027,88.040 L75.136,87.193 L75.287,86.607 L75.343,86.390 L75.646,85.637 L76.045,84.935 L76.222,84.701 L76.542,84.281 L77.135,83.678 L77.826,83.125 L78.612,82.622 L79.498,82.163 L80.485,81.744 L81.575,81.357 L82.773,80.995 L84.068,80.654"/>
<path d="M82.334,80.937 L84.639,80.763 L86.080,80.625 L87.450,80.449 L88.111,80.348 L89.384,80.107 L89.999,79.971 L90.597,79.817 L91.177,79.646 L91.749,79.472 L92.304,79.279 L92.842,79.069 L93.364,78.842 L94.364,78.341 L94.843,78.070 L95.305,77.781 L95.752,77.475 L96.182,77.151 L96.595,76.809 L96.992,76.451 L97.373,76.075 L97.738,75.682 L98.086,75.273 L98.418,74.846 L98.733,74.403 L99.031,73.943 L99.313,73.466 L99.579,72.972 L99.827,72.462 L100.058,71.935 L100.273,71.391 L100.652,70.255 L100.823,69.667 L100.977,69.063 L101.115,68.441 L101.235,67.803 L101.437,66.483 L101.584,65.100 L101.683,63.654 L101.744,61.357 L101.724,58.890 L101.619,54.930 L101.600,53.401 L101.610,51.978 L101.659,50.654 L101.755,49.424 L101.903,48.289 L102.106,47.244 L102.366,46.293 L102.687,45.434 L103.070,44.666 L103.515,43.992 L104.020,43.413 L104.587,42.927 L105.214,42.537 L105.898,42.244 L106.636,42.049 L106.834,42.025 L107.426,41.952 L108.264,41.955 L109.146,42.058 L110.070,42.259 L111.029,42.562"/>
<path d="M112.106,43.185 L112.397,43.392 L113.360,44.134 L114.419,45.021 L115.567,46.091 L116.658,47.201 L117.732,48.393 L118.780,49.671 L119.802,51.024 L120.791,52.450 L121.733,53.953 L122.631,55.524 L123.082,56.376 L123.477,57.157 L124.034,58.337 L124.265,58.851 L124.862,60.281 L125.642,62.408 L126.220,64.265 L126.658,65.933 L127.122,68.120 L127.435,70.113 L127.560,71.199 L127.647,72.147 L127.694,72.854 L127.757,74.458 L127.747,76.008 L127.673,77.504 L127.547,78.950 L127.366,80.344 L127.134,81.686 L126.853,83.053 L126.551,84.232 L126.211,85.442 L125.825,86.601 L125.421,87.727 L124.984,88.812 L124.525,89.861 L124.051,90.883 L123.548,91.866 L123.029,92.823 L122.498,93.755 L121.834,94.855 L120.808,96.407 L120.216,97.249 L119.612,98.074 L118.994,98.883 L118.363,99.675 L117.717,100.454 L117.056,101.218 L116.380,101.968 L115.687,102.707 L114.976,103.433 L114.246,104.145 L113.489,104.837 L112.710,105.516 L111.909,106.182 L111.083,106.835 L110.220,107.457 L109.331,108.066 L108.717,108.464 L107.147,109.369"/>
<path d="M106.494,109.584 L105.766,109.804 L104.530,110.134 L103.242,110.401 L101.911,110.618 L100.527,110.763 L99.092,110.836 L98.167,110.846 L97.608,110.835 L96.240,110.766 L94.490,110.576 L92.542,110.233 L90.769,109.805 L89.047,109.281 L87.378,108.670 L85.766,107.980 L84.214,107.215 L82.726,106.382 L81.302,105.492 L79.944,104.552 L78.507,103.445 L77.448,102.541 L76.312,101.487 L75.257,100.408 L74.876,99.986 L74.284,99.309 L73.392,98.202 L72.589,97.087 L71.871,95.976 L71.243,94.872 L70.706,93.781 L70.257,92.712 L69.902,91.668 L69.640,90.652 L69.469,89.674 L69.391,88.737 L69.405,87.844 L69.511,87.001 L69.709,86.209 L69.998,85.473 L70.378,84.794 L70.845,84.177 L71.403,83.618 L72.049,83.120 L72.781,82.684 L73.601,82.306 L74.508,81.984 L75.502,81.717 L76.583,81.498 L77.357,81.385"/>
<path d="M75.680,81.412 L77.066,81.521 L80.918,81.873 L82.430,81.981 L84.575,82.073 L85.932,82.074 L86.590,82.057 L87.863,81.977 L88.481,81.917 L89.082,81.838 L90.248,81.637 L90.811,81.512 L91.358,81.367 L92.407,81.022 L92.912,80.828 L93.401,80.613 L93.874,80.378 L94.329,80.123 L94.768,79.849 L95.189,79.554 L95.593,79.240 L95.980,78.907 L96.349,78.555 L96.701,78.185 L97.035,77.796 L97.350,77.387 L97.646,76.959 L97.925,76.515 L98.185,76.052 L98.427,75.572 L98.650,75.073 L98.854,74.558 L99.039,74.025 L99.204,73.476 L99.350,72.909 L99.477,72.326 L99.687,71.121 L99.766,70.496 L99.826,69.856 L99.899,68.533 L99.912,67.156 L99.868,65.725 L99.824,64.987 L99.699,63.470 L99.424,61.077 L99.191,59.396 L98.531,55.119 L98.308,53.578 L98.121,52.122 L97.977,50.746 L97.884,49.451 L97.844,48.236 L97.864,47.100 L97.948,46.042 L98.098,45.063 L98.313,44.168 L98.598,43.352 L98.952,42.620 L99.374,41.974 L99.864,41.414 L100.421,40.941 L101.042,40.557 L101.726,40.265 L102.468,40.064 L103.267,39.957 L104.119,39.942 L105.018,40.025 L105.959,40.205 L106.941,40.479"/>
<path d="M105.984,40.069 L106.950,40.600 L108.088,41.304 L109.233,42.099 L110.385,42.977 L111.529,43.948 L112.358,44.705 L112.669,44.997 L113.793,46.128 L114.099,46.457 L114.895,47.339 L115.974,48.622 L117.021,49.976 L118.028,51.401 L118.993,52.887 L119.711,54.082 L120.778,56.029 L121.732,58.015 L122.322,59.382 L122.994,61.122 L123.593,62.899 L123.856,63.780 L124.114,64.709 L124.553,66.548 L124.904,68.411 L125.022,69.194 L125.165,70.294 L125.329,72.194 L125.395,74.141 L125.349,76.041 L125.270,77.151 L125.193,77.985 L125.120,78.572 L124.923,79.937 L124.515,81.921 L123.973,83.926 L123.270,85.978 L122.832,87.047 L122.372,88.117 L121.424,90.018 L120.918,90.938 L120.398,91.826 L119.875,92.693 L119.337,93.530 L118.237,95.142 L117.123,96.693 L115.979,98.183 L114.817,99.639 L113.632,101.071 L112.414,102.486 L111.139,103.872 L109.811,105.248 L109.117,105.926 L107.655,107.252 L106.886,107.901 L105.286,109.133 L104.379,109.745 L103.476,110.329 L102.522,110.869 L101.715,111.304 L100.491,111.873 L99.630,112.230"/>
<path d="M100.819,111.825 L99.549,112.097 L98.526,112.275 L96.857,112.467 L95.429,112.541 L94.798,112.553 L93.949,112.541 L92.975,112.500 L92.417,112.458 L91.180,112.330 L89.414,112.052 L87.680,111.670 L85.792,111.131 L84.026,110.511 L82.704,109.972 L82.227,109.761 L81.131,109.244 L80.403,108.873 L79.606,108.446 L78.133,107.584 L76.717,106.667 L75.361,105.688 L74.069,104.668 L72.841,103.611 L71.687,102.517 L70.605,101.397 L69.552,100.209 L68.669,99.105 L67.818,97.947 L67.055,96.783 L66.427,95.727 L65.778,94.483 L65.268,93.359 L65.129,93.000 L64.848,92.255 L64.516,91.181 L64.272,90.144 L64.117,89.147 L64.053,88.192 L64.076,87.289 L64.186,86.440 L64.384,85.649 L64.668,84.919 L65.037,84.253 L65.241,83.983 L65.489,83.654 L66.023,83.124 L66.640,82.662 L67.338,82.268 L68.112,81.947 L68.966,81.691 L69.896,81.501 L70.901,81.376 L71.837,81.321"/>
<path d="M70.256,81.220 L71.357,81.433 L72.693,81.726 L77.423,82.873 L79.748,83.408 L81.228,83.714 L82.657,83.970 L84.040,84.171 L84.718,84.259 L85.382,84.325 L86.682,84.416 L87.314,84.435 L88.546,84.425 L89.146,84.394 L89.731,84.341 L90.867,84.182 L91.415,84.074 L91.947,83.942 L92.463,83.786 L93.451,83.416 L93.922,83.199 L94.373,82.958 L94.806,82.693 L95.218,82.404 L95.611,82.091 L95.983,81.755 L96.334,81.397 L96.663,81.016 L96.971,80.612 L97.258,80.187 L97.522,79.741 L97.763,79.273 L97.982,78.786 L98.178,78.278 L98.351,77.751 L98.501,77.205 L98.740,76.066 L98.831,75.475 L98.900,74.868 L98.946,74.244 L98.984,72.959 L98.978,72.300 L98.951,71.626 L98.849,70.247 L98.679,68.822 L98.458,67.359 L98.175,65.850 L97.658,63.503 L97.254,61.876 L96.807,60.191 L95.124,54.136 L94.743,52.667 L94.406,51.267 L94.120,49.931 L93.891,48.661 L93.724,47.456 L93.623,46.318 L93.588,45.249 L93.628,44.246 L93.738,43.316 L93.925,42.455 L94.186,41.669 L94.521,40.961 L94.931,40.329 L95.414,39.777 L95.969,39.307 L96.592,38.920 L97.282,38.620 L98.036,38.405 L98.848,38.282 L99.714,38.250 L100.634,38.307 L100.829,38.336 L100.597,38.051 L101.359,38.372 L102.059,38.710 L102.519,38.940 L103.695,39.596 L104.881,40.341 L106.075,41.168 L107.264,42.083 L108.449,43.076 L109.901,44.419 L110.774,45.297 L111.592,46.170 L111.905,46.516 L113.007,47.803 L114.071,49.157 L114.615,49.895 L115.096,50.570 L115.944,51.830 L117.007,53.557 L117.880,55.125 L118.694,56.734 L119.162,57.741 L119.444,58.378 L119.988,59.699 L120.737,61.753 L121.270,63.475 L121.722,65.214 L122.135,67.206 L122.376,68.716 L122.572,70.469 L122.677,72.216 L122.688,73.955 L122.602,75.682 L122.417,77.391 L122.133,79.077 L121.749,80.738 L121.254,82.381 L120.651,83.997 L119.932,85.595 L119.092,87.176 L118.108,88.767 L116.963,90.388 L116.259,91.277 L115.599,92.108 L113.863,94.116 L112.803,95.281 L111.704,96.534 L110.123,98.425 L108.590,100.365 L107.578,101.708 L106.641,102.999 L105.018,105.122 L103.617,106.804 L102.283,108.232 L100.962,109.477 L99.636,110.559 L98.512,111.354 L98.285,111.508 L96.907,112.329 L95.576,112.993 L94.057,113.612 L93.331,113.853 L93.169,113.780 L91.437,113.883 L89.737,113.871 L88.750,113.811 L88.044,113.750 L87.166,113.643 L86.361,113.525 L85.530,113.374 L84.691,113.201 L83.844,112.996 L83.039,112.782 L81.410,112.272 L79.806,111.678 L78.233,111.003 L76.694,110.254 L74.871,109.237 L73.747,108.542 L73.025,108.066 L72.342,107.597 L71.187,106.751 L69.692,105.551 L68.457,104.460 L67.284,103.336 L66.179,102.181 L65.892,101.860 L65.146,101.001 L64.264,99.913 L63.299,98.600 L62.490,97.390 L61.763,96.181 L61.118,94.982 L60.556,93.796 L60.213,92.970 L60.077,92.633 L59.686,91.493 L59.378,90.391 L59.159,89.323 L59.025,88.299 L58.975,87.327 L59.011,86.408 L59.133,85.545 L59.337,84.746 L59.623,84.013 L59.990,83.350 L60.435,82.760 L60.958,82.244 L61.556,81.805 L62.229,81.442 L62.975,81.155 L63.790,80.947 L64.675,80.812 L65.626,80.754 L66.735,80.773"/>
<path d="M87.570,69.908 L86.345,69.332 L85.100,68.710 L83.817,68.037 L81.139,66.577 L76.199,63.840 L73.164,62.231 L71.666,61.471 L70.173,60.739 L68.680,60.036 L66.426,59.034 L64.139,58.085 L62.586,57.480 L61.400,57.049 L60.997,56.888 L59.883,56.501 L59.359,56.297 L58.409,55.975 L57.646,55.682 L56.995,55.464 L56.750,55.356 L55.668,54.941 L54.764,54.512 L54.455,54.384 L53.399,53.747 L52.525,53.007 L51.868,52.128 L51.429,51.115 L51.191,49.998 L51.133,48.806 L51.230,47.575 L51.463,46.334 L51.817,45.104 L52.282,43.902 L52.844,42.745 L53.499,41.643 L54.244,40.599 L55.073,39.622 L55.237,39.458 L55.981,38.718 L56.859,37.978 L58.007,37.155 L59.119,36.499 L60.292,35.932 L61.520,35.454 L62.146,35.259 L62.799,35.069 L63.771,34.852"/>
<path d="M61.980,35.158 L63.539,35.117 L65.111,35.177 L65.668,35.225 L66.691,35.337 L68.274,35.593 L69.856,35.943 L71.431,36.383 L72.421,36.708 L72.995,36.910 L74.217,37.385 L76.041,38.193 L77.569,38.975 L79.036,39.813 L79.733,40.243 L80.467,40.715 L81.578,41.476 L83.205,42.696 L84.498,43.768 L85.740,44.882 L86.932,46.039 L88.045,47.224 L88.597,47.848 L89.102,48.438 L90.175,49.780 L91.007,50.923 L91.634,51.848 L91.852,52.180 L92.618,53.441 L93.306,54.698 L93.915,55.942 L94.441,57.172 L94.887,58.376 L95.247,59.553 L95.525,60.693 L95.652,61.395 L95.720,61.792 L95.829,62.846 L95.857,63.844 L95.802,64.787 L95.664,65.669 L95.448,66.483 L95.154,67.225 L94.784,67.893 L94.471,68.307 L94.338,68.484 L93.818,68.996 L93.228,69.425 L92.569,69.772 L91.843,70.034 L91.054,70.210 L90.203,70.302 L89.290,70.313 L88.320,70.243"/>
<path d="M91.029,70.896 L89.748,70.103 L88.555,69.320 L86.082,67.608 L77.687,61.550 L74.672,59.423 L71.255,57.064 L68.650,55.243 L67.413,54.349 L66.230,53.466 L65.117,52.584 L64.084,51.701 L63.143,50.809 L62.304,49.904 L61.575,48.985 L60.966,48.048 L60.481,47.092 L60.123,46.122 L59.893,45.141 L59.792,44.154 L59.809,43.178 L59.952,42.208 L60.205,41.267 L60.571,40.352 L61.043,39.475 L61.613,38.646 L62.277,37.872 L62.555,37.607 L63.031,37.156 L63.870,36.506 L64.787,35.925 L65.778,35.419 L66.836,34.993 L67.955,34.650 L69.131,34.391 L69.621,34.317"/>
<path d="M67.671,34.465 L68.322,34.468 L69.224,34.514 L69.778,34.553 L70.840,34.675 L71.255,34.731 L72.745,35.000 L74.246,35.359 L76.013,35.899 L77.244,36.344 L77.822,36.575 L78.735,36.960 L79.658,37.386 L80.214,37.655 L81.676,38.424 L83.370,39.430 L84.517,40.181 L85.219,40.669 L85.890,41.155 L87.046,42.042 L88.516,43.273 L89.758,44.410 L90.567,45.201 L90.949,45.587 L92.084,46.800 L93.155,48.049 L94.166,49.320 L95.266,50.838 L95.981,51.917 L96.600,52.921 L97.507,54.539 L98.155,55.845 L98.799,57.321 L99.213,58.413 L99.624,59.660 L99.949,60.881 L100.177,61.965 L100.356,63.199 L100.440,64.372 L100.438,65.321 L100.359,66.293 L100.201,67.200 L99.965,68.038 L99.655,68.800 L99.272,69.483 L99.098,69.713 L98.817,70.085 L98.294,70.602 L97.704,71.030 L97.214,71.284 L97.052,71.368 L96.338,71.615"/>
<path d="M94.864,72.744 L93.947,72.049 L92.843,71.157 L91.713,70.208 L89.391,68.165 L86.990,65.987 L82.829,62.160 L77.127,56.952 L74.808,54.779 L73.710,53.714 L72.663,52.664 L71.678,51.625 L70.762,50.597 L69.924,49.579 L69.172,48.567 L68.509,47.567 L67.948,46.571 L67.487,45.585 L67.133,44.611 L66.887,43.649 L66.752,42.704 L66.727,41.780 L66.808,40.886 L66.997,40.023 L67.292,39.196 L67.684,38.417 L68.177,37.683 L68.761,37.007 L69.070,36.723 L69.434,36.391 L70.195,35.836 L71.030,35.357 L71.943,34.947 L72.927,34.612 L73.971,34.361 L75.075,34.191"/>
<path d="M73.547,34.174 L74.301,34.225 L75.677,34.409 L75.968,34.460 L77.077,34.681 L77.711,34.834 L78.494,35.040 L79.502,35.346 L79.925,35.484 L81.362,36.011 L82.796,36.626 L84.225,37.319 L85.643,38.088 L87.047,38.929 L88.425,39.844 L88.785,40.098 L89.776,40.824 L90.616,41.477 L91.095,41.864 L92.379,42.959 L93.616,44.112 L94.808,45.309 L95.950,46.545 L97.035,47.821 L98.060,49.128 L99.024,50.455 L99.920,51.803 L100.162,52.191 L100.747,53.165 L101.366,54.273 L102.185,55.895 L102.790,57.254 L103.320,58.596 L103.765,59.925 L104.134,61.223 L104.422,62.489 L104.497,62.912 L104.628,63.718 L104.756,64.898 L104.800,66.031 L104.759,67.206 L104.656,68.117 L104.470,69.059 L104.207,69.931 L103.873,70.723"/>
<path d="M108.840,73.103 L106.620,75.727 L105.074,77.671 L103.993,79.212 L103.206,80.561 L102.656,81.785 L102.298,82.939 L102.119,84.034 L102.094,85.098 L102.227,86.123 L102.503,87.121 L102.920,88.089 L103.478,89.023 L104.174,89.919 L105.005,90.774 L105.400,91.106 L105.978,91.571 L107.092,92.304 L107.597,92.579 L108.352,92.958 L109.506,93.429 L109.760,93.521 L111.261,93.947 L112.898,94.228 L114.443,94.331 L115.069,94.335 L115.912,94.296 L117.318,94.151 L118.640,93.875 L119.915,93.524 L121.114,93.065 L122.262,92.536 L123.357,91.939 L124.384,91.256 L125.358,90.510 L126.278,89.702 L127.142,88.833 L127.477,88.447 L127.950,87.903 L128.701,86.915 L129.394,85.869 L130.027,84.767 L130.600,83.610 L131.097,82.437 L131.543,81.120 L131.908,79.788 L132.207,78.406 L132.402,76.948 L132.527,75.443 L132.529,73.857 L132.486,72.910 L132.427,72.210 L132.233,70.707 L131.798,68.685 L131.284,67.045 L130.658,65.521 L130.254,64.711 L129.964,64.170 L129.213,62.991 L128.419,61.974 L127.586,61.122 L126.729,60.425 L125.850,59.885 L124.954,59.505 L124.044,59.287 L123.123,59.231 L122.182,59.356 L121.227,59.655 L120.237,60.160 L119.201,60.886 L118.404,61.592 L118.077,61.889 L116.808,63.237 L115.225,65.142 L113.099,67.863 L110.992,70.506 Z"/>
<path d="M113.456,76.389 L112.976,77.353 L112.517,78.375 L112.162,79.576 L112.071,79.937 L111.935,81.292 L112.062,82.473 L112.389,83.495 L112.960,84.472 L113.715,85.295 L114.682,85.982 L115.851,86.538 L117.277,86.887 L117.674,86.931 L118.995,86.977 L119.177,86.965 L120.520,86.763 L121.168,86.600 L121.759,86.409 L122.895,85.915 L123.953,85.321 L124.919,84.613 L125.798,83.807 L126.403,83.132 L126.598,82.914 L127.316,81.939 L127.952,80.882 L128.492,79.738 L128.923,78.500 L129.258,77.185 L129.374,76.506 L129.459,75.767 L129.518,74.246 L129.511,74.042 L129.351,72.567 L129.276,72.128 L128.838,70.564 L128.239,69.306 L127.542,68.286 L126.744,67.517 L125.864,66.978 L124.891,66.693 L123.832,66.658 L122.643,66.933 L122.332,67.067 L121.268,67.591 L120.434,68.179 L119.623,68.803 L118.891,69.473 L118.198,70.163 L117.532,70.866 L116.892,71.586 L116.274,72.323 L115.676,73.082 L115.096,73.863 L114.533,74.671 L113.984,75.509 Z"/>
<path d="M97.441,75.624 L98.571,74.791 L99.059,74.398 L99.532,73.991 L99.989,73.570 L100.432,73.136 L101.274,72.226 L102.059,71.260 L102.790,70.236 L103.466,69.151 L104.088,68.004 L104.667,66.798 L105.202,65.530 L105.687,64.189 L106.151,62.788 L106.792,60.544 L107.944,56.033 L108.356,54.572 L108.770,53.268 L109.205,52.102 L109.670,51.066 L110.170,50.155 L110.710,49.363 L111.289,48.694 L111.915,48.135 L112.580,47.698 L113.291,47.371 L114.045,47.157 L114.838,47.056 L115.668,47.069 L116.531,47.196 L117.260,47.392 L117.423,47.436 L118.342,47.788 L119.283,48.251 L120.242,48.823 L120.551,49.037"/>
<path d="M121.491,49.810 L121.859,50.196 L122.860,51.343 L123.839,52.589 L124.791,53.932 L125.477,54.985 L125.714,55.364 L126.597,56.888 L127.429,58.506 L128.209,60.210 L128.488,60.881 L128.926,62.001 L129.214,62.800 L129.574,63.878 L129.820,64.685 L130.143,65.842 L130.316,66.531 L130.624,67.893 L131.006,70.032 L131.224,71.805 L131.353,73.468 L131.413,75.085 L131.387,77.096 L131.325,78.171 L131.197,79.647 L131.003,81.070 L130.771,82.455 L130.480,83.790 L130.154,85.087 L129.978,85.705 L129.785,86.341 L129.376,87.555 L128.937,88.735 L128.462,89.877 L127.952,90.981 L127.414,92.053 L126.848,93.095 L126.256,94.106 L125.636,95.088 L124.986,96.038 L124.310,96.959 L123.607,97.852 L122.878,98.719 L122.123,99.560 L121.314,100.397"/>
<path d="M120.442,101.071 L119.479,101.760 L118.481,102.414 L117.437,103.016 L116.358,103.581 L115.190,104.129 L114.077,104.571 L112.874,104.993 L111.624,105.355 L110.330,105.660 L108.986,105.897 L107.479,106.083 L106.158,106.159 L105.280,106.177 L104.670,106.171 L103.134,106.098 L101.218,105.869 L99.904,105.630 L99.337,105.508 L98.217,105.227 L97.546,105.037 L96.482,104.694 L95.844,104.468 L94.703,104.017 L94.228,103.814 L92.697,103.086 L91.019,102.147 L89.906,101.439 L88.643,100.542 L87.470,99.607 L87.194,99.365 L86.392,98.637 L85.405,97.648 L84.517,96.637 L83.723,95.619 L83.027,94.598 L82.434,93.577 L81.938,92.566 L81.543,91.570 L81.278,90.691 L81.059,89.640 L80.972,88.713 L80.990,87.816 L81.111,86.954 L81.336,86.129 L81.664,85.345 L82.103,84.594 L82.624,83.911 L83.297,83.210 L84.060,82.568 L84.936,81.955 L85.930,81.362 L87.049,80.781 L88.307,80.188 L91.520,78.789"/>
<path d="M82.366,115.528 L81.682,115.532 L80.226,115.445 L78.751,115.266 L77.262,114.995 L75.763,114.635 L74.261,114.187 L73.084,113.776 L71.266,113.041 L69.790,112.343 L68.331,111.571 L66.895,110.728 L65.486,109.819 L63.862,108.655 L62.780,107.810 L61.489,106.724 L60.244,105.592 L59.056,104.412 L57.923,103.196 L56.847,101.952 L55.839,100.679 L55.452,100.158 L54.896,99.387 L54.047,98.126 L53.223,96.771 L52.497,95.461 L51.848,94.156 L51.280,92.861 L50.768,91.531 L50.382,90.337 L50.053,89.121 L49.810,87.937 L49.649,86.831 L49.566,85.712 L49.565,84.681 L49.588,84.380 L49.645,83.707 L49.804,82.799 L50.037,81.963 L50.110,81.782 L50.349,81.200 L50.733,80.515 L51.187,79.913 L51.710,79.398 L52.299,78.970 L52.952,78.631 L53.666,78.384 L54.439,78.228 L55.266,78.165 L56.148,78.191 L57.082,78.306 L58.064,78.508 L57.613,78.323 L57.965,78.510 L59.094,79.170 L60.256,79.896 L61.447,80.681 L62.671,81.514 L65.200,83.303 L69.673,86.551 L72.686,88.711 L75.706,90.833 L80.072,93.850 L81.355,94.755 L82.595,95.645 L83.776,96.531 L84.888,97.413 L85.921,98.297 L86.864,99.187 L87.704,100.089 L88.431,101.010 L89.040,101.949 L89.526,102.903 L89.883,103.875 L90.113,104.855 L90.218,105.837 L90.196,106.819 L90.058,107.783 L89.801,108.730 L89.435,109.644 L88.966,110.519 L88.395,111.348 L87.881,111.948 L87.729,112.125 L86.973,112.843 L86.135,113.492 L85.220,114.071 L84.230,114.575 L83.718,114.786 L83.172,115.001 L82.051,115.346 L80.873,115.607"/>
<path d="M126.934,94.063 L126.150,94.984 L125.326,95.863 L124.463,96.701 L123.561,97.497 L122.620,98.251 L121.640,98.963 L120.622,99.633 L119.553,100.244 L118.445,100.808 L117.298,101.325 L117.046,101.426 L116.099,101.777 L114.858,102.173 L114.165,102.360 L113.569,102.504 L112.230,102.764 L111.613,102.856 L110.842,102.948 L109.407,103.057 L107.914,103.065 L107.128,103.036 L106.371,102.981 L104.777,102.793 L103.220,102.505 L101.446,102.046 L99.783,101.482 L98.226,100.830 L96.772,100.104 L95.419,99.318 L94.166,98.481 L93.020,97.595 L91.971,96.681 L91.033,95.732 L90.194,94.771 L89.843,94.309 L89.462,93.794 L88.839,92.809 L88.321,91.826 L88.042,91.163 L87.911,90.848 L87.610,89.880 L87.420,88.926 L87.342,87.989 L87.375,87.073 L87.520,86.181 L87.786,85.307 L88.164,84.460 L88.667,83.630 L89.009,83.185 L89.292,82.818 L90.047,82.017 L90.940,81.215 L91.980,80.401 L93.191,79.542 L94.598,78.606 L95.558,77.992 L97.457,76.722 L98.643,75.872 L99.775,75.014 L100.844,74.121 L101.860,73.199 L102.349,72.725 L103.285,71.741 L103.733,71.231 L104.592,70.175 L105.403,69.065 L106.168,67.901 L106.893,66.680 L107.588,65.404 L108.246,64.060 L108.892,62.656 L109.846,60.416 L110.304,59.287 L111.006,57.629 L111.658,56.196 L112.286,54.959 L112.916,53.888 L113.558,52.971 L114.221,52.198 L114.912,51.560 L115.628,51.060 L116.276,50.735 L116.379,50.684 L117.156,50.441 L117.965,50.320 L118.803,50.323 L119.667,50.449 L120.552,50.698 L121.456,51.068 L122.374,51.559 L123.304,52.168 L123.795,52.547 L124.236,52.898 L125.165,53.749"/>
<path d="M126.372,55.070 L126.929,55.899 L127.658,57.080 L127.807,57.333 L128.741,59.070 L129.426,60.519 L129.649,61.032 L130.152,62.267 L130.410,62.961 L130.810,64.121 L131.040,64.854 L131.391,66.081 L131.550,66.705 L131.953,68.513 L132.266,70.341 L132.461,71.987 L132.585,73.653 L132.638,75.274 L132.608,76.841 L132.520,78.365 L132.367,79.840 L132.159,81.272 L131.894,82.656 L131.602,83.942 L131.222,85.297 L130.819,86.556 L130.344,87.868 L129.891,88.954 L129.366,90.094 L128.808,91.199 L128.216,92.269"/>
<path d="M132.796,80.846 L132.461,82.206 L132.064,83.516 L131.614,84.781 L131.112,86.001 L130.549,87.165 L129.936,88.284 L129.276,89.358 L128.569,90.385 L127.815,91.365 L127.421,91.824 L127.014,92.298 L126.167,93.182 L125.275,94.018 L124.338,94.804 L123.357,95.540 L122.321,96.212 L121.240,96.829 L120.115,97.392 L119.429,97.691 L118.940,97.890 L117.710,98.314 L116.439,98.679 L115.102,98.948 L113.722,99.147 L112.278,99.241 L111.645,99.253 L110.778,99.235 L109.575,99.158 L109.221,99.120 L107.673,98.888 L105.921,98.475 L104.308,97.945 L102.824,97.320 L102.298,97.061 L101.461,96.618 L100.214,95.857 L99.091,95.034 L98.228,94.306 L98.080,94.176 L97.191,93.275 L96.415,92.352 L95.755,91.412 L95.217,90.454 L94.797,89.488 L94.497,88.520 L94.320,87.549 L94.270,86.577 L94.344,85.611 L94.549,84.647 L94.889,83.680 L94.979,83.497 L95.373,82.704 L96.007,81.712 L96.805,80.688 L97.795,79.598 L99.008,78.402 L100.527,76.999 L101.931,75.730 L103.635,74.120 L104.179,73.581 L105.229,72.488 L105.738,71.932 L106.723,70.798 L107.672,69.631 L108.587,68.426 L109.475,67.177 L109.909,66.533 L110.761,65.204 L111.610,63.824 L112.608,62.138 L113.715,60.313 L114.665,58.847 L115.542,57.641 L116.378,56.655 L117.200,55.856 L118.022,55.226 L118.847,54.758 L119.684,54.442 L120.534,54.272 L121.400,54.240 L122.276,54.350 L123.162,54.598 L124.057,54.980 L124.955,55.496 L125.848,56.149 L126.736,56.933 L127.615,57.846 L128.468,58.900 L129.388,60.224 L130.087,61.408 L130.832,62.869"/>
<path d="M131.696,64.803 L132.245,66.669 L132.668,68.485 L132.979,70.252 L133.096,71.094 L133.193,71.970 L133.322,73.642 L133.355,75.257 L133.343,76.128 L133.317,76.827 L133.208,78.347 L133.031,79.819"/>
</g>
<g inkscape:groupmode="layer" inkscape:label="2 - dots" id="dots" fill="none" stroke="#262626" stroke-width="0.35" stroke-linecap="round" stroke-linejoin="round">
</g>
</svg>